<svg viewBox="0 0 680 510" width="100%" xmlns="http://www.w3.org/2000/svg" role="img" aria-labelledby="svg-title-flauta svg-desc-flauta">
  <title id="svg-title-flauta">Modos de vibração — flauta (representação aproximada)</title>
  <desc id="svg-desc-flauta">Quatro cordas: 1º harmônico com amplitude grande, 2º com amplitude pequena, 3º ainda menor, e soma dos três produzindo curva próxima de um arco suave.</desc>
  <text x="340" y="28" text-anchor="middle" font-size="1rem" font-family="var(--font-sans, sans-serif)" font-weight="600" fill="var(--color-text-primary, #1a1a18)">Harmônicos numa flauta</text>
  <line x1="140" y1="110" x2="640" y2="110" stroke="var(--color-border-tertiary, #333)" stroke-width="1.5" stroke-dasharray="5 4"/>
  <path d="M140.00,110.00 L141.25,109.64 L142.50,109.28 L143.75,108.92 L145.00,108.56 L146.25,108.19 L147.50,107.83 L148.75,107.47 L150.00,107.11 L151.25,106.75 L152.50,106.39 L153.75,106.03 L155.00,105.67 L156.25,105.31 L157.50,104.95 L158.75,104.59 L160.00,104.23 L161.25,103.88 L162.50,103.52 L163.75,103.16 L165.00,102.80 L166.25,102.45 L167.50,102.09 L168.75,101.74 L170.00,101.38 L171.25,101.03 L172.50,100.67 L173.75,100.32 L175.00,99.97 L176.25,99.61 L177.50,99.26 L178.75,98.91 L180.00,98.56 L181.25,98.21 L182.50,97.86 L183.75,97.51 L185.00,97.17 L186.25,96.82 L187.50,96.47 L188.75,96.13 L190.00,95.79 L191.25,95.44 L192.50,95.10 L193.75,94.76 L195.00,94.42 L196.25,94.08 L197.50,93.74 L198.75,93.40 L200.00,93.07 L201.25,92.73 L202.50,92.40 L203.75,92.06 L205.00,91.73 L206.25,91.40 L207.50,91.07 L208.75,90.74 L210.00,90.41 L211.25,90.09 L212.50,89.76 L213.75,89.44 L215.00,89.12 L216.25,88.80 L217.50,88.48 L218.75,88.16 L220.00,87.84 L221.25,87.52 L222.50,87.21 L223.75,86.90 L225.00,86.58 L226.25,86.27 L227.50,85.97 L228.75,85.66 L230.00,85.35 L231.25,85.05 L232.50,84.74 L233.75,84.44 L235.00,84.14 L236.25,83.85 L237.50,83.55 L238.75,83.25 L240.00,82.96 L241.25,82.67 L242.50,82.38 L243.75,82.09 L245.00,81.81 L246.25,81.52 L247.50,81.24 L248.75,80.96 L250.00,80.68 L251.25,80.40 L252.50,80.13 L253.75,79.85 L255.00,79.58 L256.25,79.31 L257.50,79.04 L258.75,78.78 L260.00,78.51 L261.25,78.25 L262.50,77.99 L263.75,77.73 L265.00,77.47 L266.25,77.22 L267.50,76.97 L268.75,76.72 L270.00,76.47 L271.25,76.22 L272.50,75.98 L273.75,75.73 L275.00,75.49 L276.25,75.26 L277.50,75.02 L278.75,74.79 L280.00,74.56 L281.25,74.33 L282.50,74.10 L283.75,73.88 L285.00,73.65 L286.25,73.43 L287.50,73.21 L288.75,73.00 L290.00,72.79 L291.25,72.57 L292.50,72.37 L293.75,72.16 L295.00,71.95 L296.25,71.75 L297.50,71.55 L298.75,71.36 L300.00,71.16 L301.25,70.97 L302.50,70.78 L303.75,70.59 L305.00,70.41 L306.25,70.22 L307.50,70.04 L308.75,69.87 L310.00,69.69 L311.25,69.52 L312.50,69.35 L313.75,69.18 L315.00,69.01 L316.25,68.85 L317.50,68.69 L318.75,68.53 L320.00,68.38 L321.25,68.23 L322.50,68.08 L323.75,67.93 L325.00,67.78 L326.25,67.64 L327.50,67.50 L328.75,67.36 L330.00,67.23 L331.25,67.10 L332.50,66.97 L333.75,66.84 L335.00,66.72 L336.25,66.60 L337.50,66.48 L338.75,66.36 L340.00,66.25 L341.25,66.14 L342.50,66.03 L343.75,65.93 L345.00,65.83 L346.25,65.73 L347.50,65.63 L348.75,65.54 L350.00,65.45 L351.25,65.36 L352.50,65.27 L353.75,65.19 L355.00,65.11 L356.25,65.03 L357.50,64.96 L358.75,64.88 L360.00,64.81 L361.25,64.75 L362.50,64.68 L363.75,64.62 L365.00,64.57 L366.25,64.51 L367.50,64.46 L368.75,64.41 L370.00,64.36 L371.25,64.32 L372.50,64.28 L373.75,64.24 L375.00,64.20 L376.25,64.17 L377.50,64.14 L378.75,64.11 L380.00,64.09 L381.25,64.07 L382.50,64.05 L383.75,64.04 L385.00,64.02 L386.25,64.01 L387.50,64.01 L388.75,64.00 L390.00,64.00 L391.25,64.00 L392.50,64.01 L393.75,64.01 L395.00,64.02 L396.25,64.04 L397.50,64.05 L398.75,64.07 L400.00,64.09 L401.25,64.11 L402.50,64.14 L403.75,64.17 L405.00,64.20 L406.25,64.24 L407.50,64.28 L408.75,64.32 L410.00,64.36 L411.25,64.41 L412.50,64.46 L413.75,64.51 L415.00,64.57 L416.25,64.62 L417.50,64.68 L418.75,64.75 L420.00,64.81 L421.25,64.88 L422.50,64.96 L423.75,65.03 L425.00,65.11 L426.25,65.19 L427.50,65.27 L428.75,65.36 L430.00,65.45 L431.25,65.54 L432.50,65.63 L433.75,65.73 L435.00,65.83 L436.25,65.93 L437.50,66.03 L438.75,66.14 L440.00,66.25 L441.25,66.36 L442.50,66.48 L443.75,66.60 L445.00,66.72 L446.25,66.84 L447.50,66.97 L448.75,67.10 L450.00,67.23 L451.25,67.36 L452.50,67.50 L453.75,67.64 L455.00,67.78 L456.25,67.93 L457.50,68.08 L458.75,68.23 L460.00,68.38 L461.25,68.53 L462.50,68.69 L463.75,68.85 L465.00,69.01 L466.25,69.18 L467.50,69.35 L468.75,69.52 L470.00,69.69 L471.25,69.87 L472.50,70.04 L473.75,70.22 L475.00,70.41 L476.25,70.59 L477.50,70.78 L478.75,70.97 L480.00,71.16 L481.25,71.36 L482.50,71.55 L483.75,71.75 L485.00,71.95 L486.25,72.16 L487.50,72.37 L488.75,72.57 L490.00,72.79 L491.25,73.00 L492.50,73.21 L493.75,73.43 L495.00,73.65 L496.25,73.88 L497.50,74.10 L498.75,74.33 L500.00,74.56 L501.25,74.79 L502.50,75.02 L503.75,75.26 L505.00,75.49 L506.25,75.73 L507.50,75.98 L508.75,76.22 L510.00,76.47 L511.25,76.72 L512.50,76.97 L513.75,77.22 L515.00,77.47 L516.25,77.73 L517.50,77.99 L518.75,78.25 L520.00,78.51 L521.25,78.78 L522.50,79.04 L523.75,79.31 L525.00,79.58 L526.25,79.85 L527.50,80.13 L528.75,80.40 L530.00,80.68 L531.25,80.96 L532.50,81.24 L533.75,81.52 L535.00,81.81 L536.25,82.09 L537.50,82.38 L538.75,82.67 L540.00,82.96 L541.25,83.25 L542.50,83.55 L543.75,83.85 L545.00,84.14 L546.25,84.44 L547.50,84.74 L548.75,85.05 L550.00,85.35 L551.25,85.66 L552.50,85.97 L553.75,86.27 L555.00,86.58 L556.25,86.90 L557.50,87.21 L558.75,87.52 L560.00,87.84 L561.25,88.16 L562.50,88.48 L563.75,88.80 L565.00,89.12 L566.25,89.44 L567.50,89.76 L568.75,90.09 L570.00,90.41 L571.25,90.74 L572.50,91.07 L573.75,91.40 L575.00,91.73 L576.25,92.06 L577.50,92.40 L578.75,92.73 L580.00,93.07 L581.25,93.40 L582.50,93.74 L583.75,94.08 L585.00,94.42 L586.25,94.76 L587.50,95.10 L588.75,95.44 L590.00,95.79 L591.25,96.13 L592.50,96.47 L593.75,96.82 L595.00,97.17 L596.25,97.51 L597.50,97.86 L598.75,98.21 L600.00,98.56 L601.25,98.91 L602.50,99.26 L603.75,99.61 L605.00,99.97 L606.25,100.32 L607.50,100.67 L608.75,101.03 L610.00,101.38 L611.25,101.74 L612.50,102.09 L613.75,102.45 L615.00,102.80 L616.25,103.16 L617.50,103.52 L618.75,103.88 L620.00,104.23 L621.25,104.59 L622.50,104.95 L623.75,105.31 L625.00,105.67 L626.25,106.03 L627.50,106.39 L628.75,106.75 L630.00,107.11 L631.25,107.47 L632.50,107.83 L633.75,108.19 L635.00,108.56 L636.25,108.92 L637.50,109.28 L638.75,109.64 L640.00,110.00" fill="none" stroke="#185FA5" stroke-width="2" stroke-linecap="round" stroke-linejoin="round"/>
  <circle cx="140" cy="110" r="4.5" fill="#185FA5"/>
  <circle cx="640" cy="110" r="4.5" fill="#185FA5"/>
  <text x="126" y="110" text-anchor="end" dominant-baseline="central" font-size="13" font-family="var(--font-sans, sans-serif)" font-weight="400" fill="#185FA5">1º harmônico</text>
  <line x1="140" y1="230" x2="640" y2="230" stroke="var(--color-border-tertiary, #333)" stroke-width="1.5" stroke-dasharray="5 4"/>
  <path d="M140.00,230.00 L141.25,229.81 L142.50,229.62 L143.75,229.43 L145.00,229.25 L146.25,229.06 L147.50,228.87 L148.75,228.68 L150.00,228.50 L151.25,228.31 L152.50,228.12 L153.75,227.94 L155.00,227.75 L156.25,227.57 L157.50,227.38 L158.75,227.20 L160.00,227.02 L161.25,226.83 L162.50,226.65 L163.75,226.47 L165.00,226.29 L166.25,226.11 L167.50,225.94 L168.75,225.76 L170.00,225.58 L171.25,225.41 L172.50,225.23 L173.75,225.06 L175.00,224.89 L176.25,224.72 L177.50,224.55 L178.75,224.38 L180.00,224.22 L181.25,224.05 L182.50,223.89 L183.75,223.73 L185.00,223.57 L186.25,223.41 L187.50,223.25 L188.75,223.10 L190.00,222.95 L191.25,222.79 L192.50,222.65 L193.75,222.50 L195.00,222.35 L196.25,222.21 L197.50,222.06 L198.75,221.92 L200.00,221.79 L201.25,221.65 L202.50,221.51 L203.75,221.38 L205.00,221.25 L206.25,221.12 L207.50,221.00 L208.75,220.88 L210.00,220.75 L211.25,220.63 L212.50,220.52 L213.75,220.40 L215.00,220.29 L216.25,220.18 L217.50,220.08 L218.75,219.97 L220.00,219.87 L221.25,219.77 L222.50,219.67 L223.75,219.58 L225.00,219.48 L226.25,219.39 L227.50,219.31 L228.75,219.22 L230.00,219.14 L231.25,219.06 L232.50,218.99 L233.75,218.91 L235.00,218.84 L236.25,218.77 L237.50,218.71 L238.75,218.65 L240.00,218.59 L241.25,218.53 L242.50,218.48 L243.75,218.43 L245.00,218.38 L246.25,218.33 L247.50,218.29 L248.75,218.25 L250.00,218.21 L251.25,218.18 L252.50,218.15 L253.75,218.12 L255.00,218.09 L256.25,218.07 L257.50,218.05 L258.75,218.04 L260.00,218.02 L261.25,218.01 L262.50,218.01 L263.75,218.00 L265.00,218.00 L266.25,218.00 L267.50,218.01 L268.75,218.01 L270.00,218.02 L271.25,218.04 L272.50,218.05 L273.75,218.07 L275.00,218.09 L276.25,218.12 L277.50,218.15 L278.75,218.18 L280.00,218.21 L281.25,218.25 L282.50,218.29 L283.75,218.33 L285.00,218.38 L286.25,218.43 L287.50,218.48 L288.75,218.53 L290.00,218.59 L291.25,218.65 L292.50,218.71 L293.75,218.77 L295.00,218.84 L296.25,218.91 L297.50,218.99 L298.75,219.06 L300.00,219.14 L301.25,219.22 L302.50,219.31 L303.75,219.39 L305.00,219.48 L306.25,219.58 L307.50,219.67 L308.75,219.77 L310.00,219.87 L311.25,219.97 L312.50,220.08 L313.75,220.18 L315.00,220.29 L316.25,220.40 L317.50,220.52 L318.75,220.63 L320.00,220.75 L321.25,220.88 L322.50,221.00 L323.75,221.12 L325.00,221.25 L326.25,221.38 L327.50,221.51 L328.75,221.65 L330.00,221.79 L331.25,221.92 L332.50,222.06 L333.75,222.21 L335.00,222.35 L336.25,222.50 L337.50,222.65 L338.75,222.79 L340.00,222.95 L341.25,223.10 L342.50,223.25 L343.75,223.41 L345.00,223.57 L346.25,223.73 L347.50,223.89 L348.75,224.05 L350.00,224.22 L351.25,224.38 L352.50,224.55 L353.75,224.72 L355.00,224.89 L356.25,225.06 L357.50,225.23 L358.75,225.41 L360.00,225.58 L361.25,225.76 L362.50,225.94 L363.75,226.11 L365.00,226.29 L366.25,226.47 L367.50,226.65 L368.75,226.83 L370.00,227.02 L371.25,227.20 L372.50,227.38 L373.75,227.57 L375.00,227.75 L376.25,227.94 L377.50,228.12 L378.75,228.31 L380.00,228.50 L381.25,228.68 L382.50,228.87 L383.75,229.06 L385.00,229.25 L386.25,229.43 L387.50,229.62 L388.75,229.81 L390.00,230.00 L391.25,230.19 L392.50,230.38 L393.75,230.57 L395.00,230.75 L396.25,230.94 L397.50,231.13 L398.75,231.32 L400.00,231.50 L401.25,231.69 L402.50,231.88 L403.75,232.06 L405.00,232.25 L406.25,232.43 L407.50,232.62 L408.75,232.80 L410.00,232.98 L411.25,233.17 L412.50,233.35 L413.75,233.53 L415.00,233.71 L416.25,233.89 L417.50,234.06 L418.75,234.24 L420.00,234.42 L421.25,234.59 L422.50,234.77 L423.75,234.94 L425.00,235.11 L426.25,235.28 L427.50,235.45 L428.75,235.62 L430.00,235.78 L431.25,235.95 L432.50,236.11 L433.75,236.27 L435.00,236.43 L436.25,236.59 L437.50,236.75 L438.75,236.90 L440.00,237.05 L441.25,237.21 L442.50,237.35 L443.75,237.50 L445.00,237.65 L446.25,237.79 L447.50,237.94 L448.75,238.08 L450.00,238.21 L451.25,238.35 L452.50,238.49 L453.75,238.62 L455.00,238.75 L456.25,238.88 L457.50,239.00 L458.75,239.12 L460.00,239.25 L461.25,239.37 L462.50,239.48 L463.75,239.60 L465.00,239.71 L466.25,239.82 L467.50,239.92 L468.75,240.03 L470.00,240.13 L471.25,240.23 L472.50,240.33 L473.75,240.42 L475.00,240.52 L476.25,240.61 L477.50,240.69 L478.75,240.78 L480.00,240.86 L481.25,240.94 L482.50,241.01 L483.75,241.09 L485.00,241.16 L486.25,241.23 L487.50,241.29 L488.75,241.35 L490.00,241.41 L491.25,241.47 L492.50,241.52 L493.75,241.57 L495.00,241.62 L496.25,241.67 L497.50,241.71 L498.75,241.75 L500.00,241.79 L501.25,241.82 L502.50,241.85 L503.75,241.88 L505.00,241.91 L506.25,241.93 L507.50,241.95 L508.75,241.96 L510.00,241.98 L511.25,241.99 L512.50,241.99 L513.75,242.00 L515.00,242.00 L516.25,242.00 L517.50,241.99 L518.75,241.99 L520.00,241.98 L521.25,241.96 L522.50,241.95 L523.75,241.93 L525.00,241.91 L526.25,241.88 L527.50,241.85 L528.75,241.82 L530.00,241.79 L531.25,241.75 L532.50,241.71 L533.75,241.67 L535.00,241.62 L536.25,241.57 L537.50,241.52 L538.75,241.47 L540.00,241.41 L541.25,241.35 L542.50,241.29 L543.75,241.23 L545.00,241.16 L546.25,241.09 L547.50,241.01 L548.75,240.94 L550.00,240.86 L551.25,240.78 L552.50,240.69 L553.75,240.61 L555.00,240.52 L556.25,240.42 L557.50,240.33 L558.75,240.23 L560.00,240.13 L561.25,240.03 L562.50,239.92 L563.75,239.82 L565.00,239.71 L566.25,239.60 L567.50,239.48 L568.75,239.37 L570.00,239.25 L571.25,239.12 L572.50,239.00 L573.75,238.88 L575.00,238.75 L576.25,238.62 L577.50,238.49 L578.75,238.35 L580.00,238.21 L581.25,238.08 L582.50,237.94 L583.75,237.79 L585.00,237.65 L586.25,237.50 L587.50,237.35 L588.75,237.21 L590.00,237.05 L591.25,236.90 L592.50,236.75 L593.75,236.59 L595.00,236.43 L596.25,236.27 L597.50,236.11 L598.75,235.95 L600.00,235.78 L601.25,235.62 L602.50,235.45 L603.75,235.28 L605.00,235.11 L606.25,234.94 L607.50,234.77 L608.75,234.59 L610.00,234.42 L611.25,234.24 L612.50,234.06 L613.75,233.89 L615.00,233.71 L616.25,233.53 L617.50,233.35 L618.75,233.17 L620.00,232.98 L621.25,232.80 L622.50,232.62 L623.75,232.43 L625.00,232.25 L626.25,232.06 L627.50,231.88 L628.75,231.69 L630.00,231.50 L631.25,231.32 L632.50,231.13 L633.75,230.94 L635.00,230.75 L636.25,230.57 L637.50,230.38 L638.75,230.19 L640.00,230.00" fill="none" stroke="#0F6E56" stroke-width="2" stroke-linecap="round" stroke-linejoin="round"/>
  <circle cx="140" cy="230" r="4.5" fill="#0F6E56"/>
  <circle cx="640" cy="230" r="4.5" fill="#0F6E56"/>
  <circle cx="390.00" cy="230" r="4.5" fill="var(--color-background-primary, #fff)" stroke="#0F6E56" stroke-width="1.5"/>
  <text x="126" y="230" text-anchor="end" dominant-baseline="central" font-size="13" font-family="var(--font-sans, sans-serif)" font-weight="400" fill="#0F6E56">2º harmônico</text>
  <line x1="140" y1="350" x2="640" y2="350" stroke="var(--color-border-tertiary, #333)" stroke-width="1.5" stroke-dasharray="5 4"/>
  <path d="M140.00,350.00 L141.25,349.88 L142.50,349.76 L143.75,349.65 L145.00,349.53 L146.25,349.41 L147.50,349.30 L148.75,349.18 L150.00,349.06 L151.25,348.95 L152.50,348.83 L153.75,348.72 L155.00,348.61 L156.25,348.49 L157.50,348.38 L158.75,348.27 L160.00,348.16 L161.25,348.05 L162.50,347.94 L163.75,347.84 L165.00,347.73 L166.25,347.63 L167.50,347.52 L168.75,347.42 L170.00,347.32 L171.25,347.22 L172.50,347.12 L173.75,347.03 L175.00,346.94 L176.25,346.84 L177.50,346.75 L178.75,346.66 L180.00,346.58 L181.25,346.49 L182.50,346.41 L183.75,346.33 L185.00,346.25 L186.25,346.17 L187.50,346.10 L188.75,346.03 L190.00,345.95 L191.25,345.89 L192.50,345.82 L193.75,345.76 L195.00,345.70 L196.25,345.64 L197.50,345.58 L198.75,345.53 L200.00,345.48 L201.25,345.43 L202.50,345.38 L203.75,345.34 L205.00,345.30 L206.25,345.26 L207.50,345.22 L208.75,345.19 L210.00,345.16 L211.25,345.13 L212.50,345.10 L213.75,345.08 L215.00,345.06 L216.25,345.04 L217.50,345.03 L218.75,345.02 L220.00,345.01 L221.25,345.00 L222.50,345.00 L223.75,345.00 L225.00,345.00 L226.25,345.01 L227.50,345.02 L228.75,345.03 L230.00,345.04 L231.25,345.06 L232.50,345.07 L233.75,345.10 L235.00,345.12 L236.25,345.15 L237.50,345.18 L238.75,345.21 L240.00,345.24 L241.25,345.28 L242.50,345.32 L243.75,345.37 L245.00,345.41 L246.25,345.46 L247.50,345.51 L248.75,345.56 L250.00,345.62 L251.25,345.68 L252.50,345.74 L253.75,345.80 L255.00,345.86 L256.25,345.93 L257.50,346.00 L258.75,346.07 L260.00,346.15 L261.25,346.22 L262.50,346.30 L263.75,346.38 L265.00,346.46 L266.25,346.55 L267.50,346.63 L268.75,346.72 L270.00,346.81 L271.25,346.90 L272.50,347.00 L273.75,347.09 L275.00,347.19 L276.25,347.29 L277.50,347.39 L278.75,347.49 L280.00,347.59 L281.25,347.70 L282.50,347.80 L283.75,347.91 L285.00,348.01 L286.25,348.12 L287.50,348.23 L288.75,348.34 L290.00,348.45 L291.25,348.57 L292.50,348.68 L293.75,348.79 L295.00,348.91 L296.25,349.02 L297.50,349.14 L298.75,349.26 L300.00,349.37 L301.25,349.49 L302.50,349.61 L303.75,349.73 L305.00,349.84 L306.25,349.96 L307.50,350.08 L308.75,350.20 L310.00,350.31 L311.25,350.43 L312.50,350.55 L313.75,350.67 L315.00,350.78 L316.25,350.90 L317.50,351.01 L318.75,351.13 L320.00,351.24 L321.25,351.36 L322.50,351.47 L323.75,351.58 L325.00,351.69 L326.25,351.80 L327.50,351.91 L328.75,352.02 L330.00,352.13 L331.25,352.23 L332.50,352.34 L333.75,352.44 L335.00,352.55 L336.25,352.65 L337.50,352.75 L338.75,352.84 L340.00,352.94 L341.25,353.03 L342.50,353.13 L343.75,353.22 L345.00,353.31 L346.25,353.39 L347.50,353.48 L348.75,353.56 L350.00,353.64 L351.25,353.72 L352.50,353.80 L353.75,353.88 L355.00,353.95 L356.25,354.02 L357.50,354.09 L358.75,354.16 L360.00,354.22 L361.25,354.28 L362.50,354.34 L363.75,354.40 L365.00,354.46 L366.25,354.51 L367.50,354.56 L368.75,354.60 L370.00,354.65 L371.25,354.69 L372.50,354.73 L373.75,354.77 L375.00,354.80 L376.25,354.83 L377.50,354.86 L378.75,354.89 L380.00,354.91 L381.25,354.93 L382.50,354.95 L383.75,354.97 L385.00,354.98 L386.25,354.99 L387.50,354.99 L388.75,355.00 L390.00,355.00 L391.25,355.00 L392.50,354.99 L393.75,354.99 L395.00,354.98 L396.25,354.97 L397.50,354.95 L398.75,354.93 L400.00,354.91 L401.25,354.89 L402.50,354.86 L403.75,354.83 L405.00,354.80 L406.25,354.77 L407.50,354.73 L408.75,354.69 L410.00,354.65 L411.25,354.60 L412.50,354.56 L413.75,354.51 L415.00,354.46 L416.25,354.40 L417.50,354.34 L418.75,354.28 L420.00,354.22 L421.25,354.16 L422.50,354.09 L423.75,354.02 L425.00,353.95 L426.25,353.88 L427.50,353.80 L428.75,353.72 L430.00,353.64 L431.25,353.56 L432.50,353.48 L433.75,353.39 L435.00,353.31 L436.25,353.22 L437.50,353.13 L438.75,353.03 L440.00,352.94 L441.25,352.84 L442.50,352.75 L443.75,352.65 L445.00,352.55 L446.25,352.44 L447.50,352.34 L448.75,352.23 L450.00,352.13 L451.25,352.02 L452.50,351.91 L453.75,351.80 L455.00,351.69 L456.25,351.58 L457.50,351.47 L458.75,351.36 L460.00,351.24 L461.25,351.13 L462.50,351.01 L463.75,350.90 L465.00,350.78 L466.25,350.67 L467.50,350.55 L468.75,350.43 L470.00,350.31 L471.25,350.20 L472.50,350.08 L473.75,349.96 L475.00,349.84 L476.25,349.73 L477.50,349.61 L478.75,349.49 L480.00,349.37 L481.25,349.26 L482.50,349.14 L483.75,349.02 L485.00,348.91 L486.25,348.79 L487.50,348.68 L488.75,348.57 L490.00,348.45 L491.25,348.34 L492.50,348.23 L493.75,348.12 L495.00,348.01 L496.25,347.91 L497.50,347.80 L498.75,347.70 L500.00,347.59 L501.25,347.49 L502.50,347.39 L503.75,347.29 L505.00,347.19 L506.25,347.09 L507.50,347.00 L508.75,346.90 L510.00,346.81 L511.25,346.72 L512.50,346.63 L513.75,346.55 L515.00,346.46 L516.25,346.38 L517.50,346.30 L518.75,346.22 L520.00,346.15 L521.25,346.07 L522.50,346.00 L523.75,345.93 L525.00,345.86 L526.25,345.80 L527.50,345.74 L528.75,345.68 L530.00,345.62 L531.25,345.56 L532.50,345.51 L533.75,345.46 L535.00,345.41 L536.25,345.37 L537.50,345.32 L538.75,345.28 L540.00,345.24 L541.25,345.21 L542.50,345.18 L543.75,345.15 L545.00,345.12 L546.25,345.10 L547.50,345.07 L548.75,345.06 L550.00,345.04 L551.25,345.03 L552.50,345.02 L553.75,345.01 L555.00,345.00 L556.25,345.00 L557.50,345.00 L558.75,345.00 L560.00,345.01 L561.25,345.02 L562.50,345.03 L563.75,345.04 L565.00,345.06 L566.25,345.08 L567.50,345.10 L568.75,345.13 L570.00,345.16 L571.25,345.19 L572.50,345.22 L573.75,345.26 L575.00,345.30 L576.25,345.34 L577.50,345.38 L578.75,345.43 L580.00,345.48 L581.25,345.53 L582.50,345.58 L583.75,345.64 L585.00,345.70 L586.25,345.76 L587.50,345.82 L588.75,345.89 L590.00,345.95 L591.25,346.03 L592.50,346.10 L593.75,346.17 L595.00,346.25 L596.25,346.33 L597.50,346.41 L598.75,346.49 L600.00,346.58 L601.25,346.66 L602.50,346.75 L603.75,346.84 L605.00,346.94 L606.25,347.03 L607.50,347.12 L608.75,347.22 L610.00,347.32 L611.25,347.42 L612.50,347.52 L613.75,347.63 L615.00,347.73 L616.25,347.84 L617.50,347.94 L618.75,348.05 L620.00,348.16 L621.25,348.27 L622.50,348.38 L623.75,348.49 L625.00,348.61 L626.25,348.72 L627.50,348.83 L628.75,348.95 L630.00,349.06 L631.25,349.18 L632.50,349.30 L633.75,349.41 L635.00,349.53 L636.25,349.65 L637.50,349.76 L638.75,349.88 L640.00,350.00" fill="none" stroke="#854F0B" stroke-width="2" stroke-linecap="round" stroke-linejoin="round"/>
  <circle cx="140" cy="350" r="4.5" fill="#854F0B"/>
  <circle cx="640" cy="350" r="4.5" fill="#854F0B"/>
  <circle cx="306.67" cy="350" r="4.5" fill="var(--color-background-primary, #fff)" stroke="#854F0B" stroke-width="1.5"/>
  <circle cx="473.33" cy="350" r="4.5" fill="var(--color-background-primary, #fff)" stroke="#854F0B" stroke-width="1.5"/>
  <text x="126" y="350" text-anchor="end" dominant-baseline="central" font-size="13" font-family="var(--font-sans, sans-serif)" font-weight="400" fill="#854F0B">3º harmônico</text>
  <line x1="140" y1="470" x2="640" y2="470" stroke="var(--color-border-tertiary, #333)" stroke-width="1.5" stroke-dasharray="5 4"/>
  <path d="M140.00,470.00 L141.25,469.33 L142.50,468.67 L143.75,468.00 L145.00,467.33 L146.25,466.66 L147.50,466.00 L148.75,465.33 L150.00,464.67 L151.25,464.01 L152.50,463.35 L153.75,462.69 L155.00,462.03 L156.25,461.37 L157.50,460.71 L158.75,460.06 L160.00,459.41 L161.25,458.76 L162.50,458.11 L163.75,457.47 L165.00,456.83 L166.25,456.19 L167.50,455.55 L168.75,454.91 L170.00,454.28 L171.25,453.66 L172.50,453.03 L173.75,452.41 L175.00,451.79 L176.25,451.18 L177.50,450.57 L178.75,449.96 L180.00,449.36 L181.25,448.76 L182.50,448.16 L183.75,447.57 L185.00,446.99 L186.25,446.40 L187.50,445.83 L188.75,445.25 L190.00,444.69 L191.25,444.12 L192.50,443.57 L193.75,443.01 L195.00,442.47 L196.25,441.92 L197.50,441.39 L198.75,440.85 L200.00,440.33 L201.25,439.81 L202.50,439.29 L203.75,438.78 L205.00,438.28 L206.25,437.78 L207.50,437.29 L208.75,436.80 L210.00,436.33 L211.25,435.85 L212.50,435.38 L213.75,434.92 L215.00,434.47 L216.25,434.02 L217.50,433.58 L218.75,433.15 L220.00,432.72 L221.25,432.30 L222.50,431.88 L223.75,431.47 L225.00,431.07 L226.25,430.68 L227.50,430.29 L228.75,429.91 L230.00,429.53 L231.25,429.17 L232.50,428.81 L233.75,428.45 L235.00,428.11 L236.25,427.77 L237.50,427.44 L238.75,427.11 L240.00,426.79 L241.25,426.48 L242.50,426.18 L243.75,425.88 L245.00,425.59 L246.25,425.31 L247.50,425.04 L248.75,424.77 L250.00,424.51 L251.25,424.26 L252.50,424.01 L253.75,423.77 L255.00,423.54 L256.25,423.31 L257.50,423.10 L258.75,422.89 L260.00,422.68 L261.25,422.49 L262.50,422.30 L263.75,422.11 L265.00,421.94 L266.25,421.77 L267.50,421.61 L268.75,421.45 L270.00,421.30 L271.25,421.16 L272.50,421.03 L273.75,420.90 L275.00,420.78 L276.25,420.66 L277.50,420.56 L278.75,420.46 L280.00,420.36 L281.25,420.27 L282.50,420.19 L283.75,420.11 L285.00,420.04 L286.25,419.98 L287.50,419.92 L288.75,419.87 L290.00,419.83 L291.25,419.79 L292.50,419.76 L293.75,419.73 L295.00,419.71 L296.25,419.69 L297.50,419.68 L298.75,419.68 L300.00,419.68 L301.25,419.68 L302.50,419.69 L303.75,419.71 L305.00,419.73 L306.25,419.76 L307.50,419.79 L308.75,419.83 L310.00,419.87 L311.25,419.92 L312.50,419.97 L313.75,420.03 L315.00,420.09 L316.25,420.15 L317.50,420.22 L318.75,420.30 L320.00,420.38 L321.25,420.46 L322.50,420.54 L323.75,420.63 L325.00,420.73 L326.25,420.83 L327.50,420.93 L328.75,421.04 L330.00,421.14 L331.25,421.26 L332.50,421.37 L333.75,421.49 L335.00,421.62 L336.25,421.74 L337.50,421.87 L338.75,422.00 L340.00,422.14 L341.25,422.27 L342.50,422.41 L343.75,422.56 L345.00,422.70 L346.25,422.85 L347.50,423.00 L348.75,423.15 L350.00,423.31 L351.25,423.47 L352.50,423.63 L353.75,423.79 L355.00,423.95 L356.25,424.11 L357.50,424.28 L358.75,424.45 L360.00,424.62 L361.25,424.79 L362.50,424.96 L363.75,425.14 L365.00,425.31 L366.25,425.49 L367.50,425.67 L368.75,425.85 L370.00,426.03 L371.25,426.21 L372.50,426.39 L373.75,426.57 L375.00,426.76 L376.25,426.94 L377.50,427.13 L378.75,427.31 L380.00,427.50 L381.25,427.68 L382.50,427.87 L383.75,428.06 L385.00,428.25 L386.25,428.44 L387.50,428.62 L388.75,428.81 L390.00,429.00 L391.25,429.19 L392.50,429.38 L393.75,429.57 L395.00,429.75 L396.25,429.94 L397.50,430.13 L398.75,430.32 L400.00,430.51 L401.25,430.69 L402.50,430.88 L403.75,431.07 L405.00,431.25 L406.25,431.44 L407.50,431.63 L408.75,431.81 L410.00,432.00 L411.25,432.18 L412.50,432.36 L413.75,432.55 L415.00,432.73 L416.25,432.91 L417.50,433.09 L418.75,433.27 L420.00,433.45 L421.25,433.63 L422.50,433.81 L423.75,433.99 L425.00,434.17 L426.25,434.34 L427.50,434.52 L428.75,434.70 L430.00,434.87 L431.25,435.05 L432.50,435.22 L433.75,435.39 L435.00,435.56 L436.25,435.73 L437.50,435.90 L438.75,436.07 L440.00,436.24 L441.25,436.41 L442.50,436.58 L443.75,436.75 L445.00,436.91 L446.25,437.08 L447.50,437.24 L448.75,437.41 L450.00,437.57 L451.25,437.74 L452.50,437.90 L453.75,438.06 L455.00,438.22 L456.25,438.39 L457.50,438.55 L458.75,438.71 L460.00,438.87 L461.25,439.03 L462.50,439.19 L463.75,439.35 L465.00,439.50 L466.25,439.66 L467.50,439.82 L468.75,439.98 L470.00,440.14 L471.25,440.29 L472.50,440.45 L473.75,440.61 L475.00,440.76 L476.25,440.92 L477.50,441.08 L478.75,441.24 L480.00,441.39 L481.25,441.55 L482.50,441.71 L483.75,441.86 L485.00,442.02 L486.25,442.18 L487.50,442.34 L488.75,442.49 L490.00,442.65 L491.25,442.81 L492.50,442.97 L493.75,443.13 L495.00,443.29 L496.25,443.45 L497.50,443.61 L498.75,443.77 L500.00,443.94 L501.25,444.10 L502.50,444.26 L503.75,444.43 L505.00,444.59 L506.25,444.76 L507.50,444.92 L508.75,445.09 L510.00,445.26 L511.25,445.43 L512.50,445.60 L513.75,445.77 L515.00,445.94 L516.25,446.11 L517.50,446.28 L518.75,446.46 L520.00,446.63 L521.25,446.81 L522.50,446.99 L523.75,447.17 L525.00,447.35 L526.25,447.53 L527.50,447.71 L528.75,447.90 L530.00,448.08 L531.25,448.27 L532.50,448.46 L533.75,448.65 L535.00,448.84 L536.25,449.03 L537.50,449.23 L538.75,449.42 L540.00,449.62 L541.25,449.82 L542.50,450.02 L543.75,450.22 L545.00,450.42 L546.25,450.63 L547.50,450.83 L548.75,451.04 L550.00,451.25 L551.25,451.46 L552.50,451.67 L553.75,451.89 L555.00,452.10 L556.25,452.32 L557.50,452.54 L558.75,452.76 L560.00,452.98 L561.25,453.20 L562.50,453.43 L563.75,453.66 L565.00,453.89 L566.25,454.12 L567.50,454.35 L568.75,454.58 L570.00,454.82 L571.25,455.05 L572.50,455.29 L573.75,455.53 L575.00,455.77 L576.25,456.02 L577.50,456.26 L578.75,456.51 L580.00,456.76 L581.25,457.01 L582.50,457.26 L583.75,457.51 L585.00,457.76 L586.25,458.02 L587.50,458.28 L588.75,458.53 L590.00,458.79 L591.25,459.05 L592.50,459.32 L593.75,459.58 L595.00,459.85 L596.25,460.11 L597.50,460.38 L598.75,460.65 L600.00,460.92 L601.25,461.19 L602.50,461.46 L603.75,461.74 L605.00,462.01 L606.25,462.29 L607.50,462.56 L608.75,462.84 L610.00,463.12 L611.25,463.40 L612.50,463.68 L613.75,463.96 L615.00,464.24 L616.25,464.53 L617.50,464.81 L618.75,465.09 L620.00,465.38 L621.25,465.66 L622.50,465.95 L623.75,466.24 L625.00,466.52 L626.25,466.81 L627.50,467.10 L628.75,467.39 L630.00,467.68 L631.25,467.97 L632.50,468.26 L633.75,468.55 L635.00,468.84 L636.25,469.13 L637.50,469.42 L638.75,469.71 L640.00,470.00" fill="none" stroke="#533AB7" stroke-width="2.5" stroke-linecap="round" stroke-linejoin="round"/>
  <circle cx="140" cy="470" r="4.5" fill="#533AB7"/>
  <circle cx="640" cy="470" r="4.5" fill="#533AB7"/>
  <text x="126" y="470" text-anchor="end" dominant-baseline="central" font-size="13" font-family="var(--font-sans, sans-serif)" font-weight="500" fill="#533AB7">soma (1+2+3)</text>
</svg>