<svg viewBox="0 0 680 510" width="100%" xmlns="http://www.w3.org/2000/svg" role="img" aria-labelledby="svg-title svg-desc">
  <title id="svg-title">Modos de vibração de uma corda — harmônicos 1, 2, 3 e soma</title>
  <desc id="svg-desc">Quatro cordas horizontais fixadas nas extremidades: 1º harmônico (um ventre), 2º harmônico (dois ventres, um nó central), 3º harmônico (três ventres, dois nós) e a soma dos três modos sobrepostos.</desc>
  <text x="340" y="28" text-anchor="middle" font-size="25" font-family="var(--font-sans, sans-serif)" font-weight="600" fill="var(--color-text-primary, #1a1a18)">Corda vibrando</text>
  <line x1="140" y1="110" x2="640" y2="110" stroke="var(--color-border-tertiary, #ccc)" stroke-width="0.6" stroke-dasharray="4 4"/>
  <path d="M140.00,110.00 L141.25,109.64 L142.50,109.28 L143.75,108.92 L145.00,108.56 L146.25,108.19 L147.50,107.83 L148.75,107.47 L150.00,107.11 L151.25,106.75 L152.50,106.39 L153.75,106.03 L155.00,105.67 L156.25,105.31 L157.50,104.95 L158.75,104.59 L160.00,104.23 L161.25,103.88 L162.50,103.52 L163.75,103.16 L165.00,102.80 L166.25,102.45 L167.50,102.09 L168.75,101.74 L170.00,101.38 L171.25,101.03 L172.50,100.67 L173.75,100.32 L175.00,99.97 L176.25,99.61 L177.50,99.26 L178.75,98.91 L180.00,98.56 L181.25,98.21 L182.50,97.86 L183.75,97.51 L185.00,97.17 L186.25,96.82 L187.50,96.47 L188.75,96.13 L190.00,95.79 L191.25,95.44 L192.50,95.10 L193.75,94.76 L195.00,94.42 L196.25,94.08 L197.50,93.74 L198.75,93.40 L200.00,93.07 L201.25,92.73 L202.50,92.40 L203.75,92.06 L205.00,91.73 L206.25,91.40 L207.50,91.07 L208.75,90.74 L210.00,90.41 L211.25,90.09 L212.50,89.76 L213.75,89.44 L215.00,89.12 L216.25,88.80 L217.50,88.48 L218.75,88.16 L220.00,87.84 L221.25,87.52 L222.50,87.21 L223.75,86.90 L225.00,86.58 L226.25,86.27 L227.50,85.97 L228.75,85.66 L230.00,85.35 L231.25,85.05 L232.50,84.74 L233.75,84.44 L235.00,84.14 L236.25,83.85 L237.50,83.55 L238.75,83.25 L240.00,82.96 L241.25,82.67 L242.50,82.38 L243.75,82.09 L245.00,81.81 L246.25,81.52 L247.50,81.24 L248.75,80.96 L250.00,80.68 L251.25,80.40 L252.50,80.13 L253.75,79.85 L255.00,79.58 L256.25,79.31 L257.50,79.04 L258.75,78.78 L260.00,78.51 L261.25,78.25 L262.50,77.99 L263.75,77.73 L265.00,77.47 L266.25,77.22 L267.50,76.97 L268.75,76.72 L270.00,76.47 L271.25,76.22 L272.50,75.98 L273.75,75.73 L275.00,75.49 L276.25,75.26 L277.50,75.02 L278.75,74.79 L280.00,74.56 L281.25,74.33 L282.50,74.10 L283.75,73.88 L285.00,73.65 L286.25,73.43 L287.50,73.21 L288.75,73.00 L290.00,72.79 L291.25,72.57 L292.50,72.37 L293.75,72.16 L295.00,71.95 L296.25,71.75 L297.50,71.55 L298.75,71.36 L300.00,71.16 L301.25,70.97 L302.50,70.78 L303.75,70.59 L305.00,70.41 L306.25,70.22 L307.50,70.04 L308.75,69.87 L310.00,69.69 L311.25,69.52 L312.50,69.35 L313.75,69.18 L315.00,69.01 L316.25,68.85 L317.50,68.69 L318.75,68.53 L320.00,68.38 L321.25,68.23 L322.50,68.08 L323.75,67.93 L325.00,67.78 L326.25,67.64 L327.50,67.50 L328.75,67.36 L330.00,67.23 L331.25,67.10 L332.50,66.97 L333.75,66.84 L335.00,66.72 L336.25,66.60 L337.50,66.48 L338.75,66.36 L340.00,66.25 L341.25,66.14 L342.50,66.03 L343.75,65.93 L345.00,65.83 L346.25,65.73 L347.50,65.63 L348.75,65.54 L350.00,65.45 L351.25,65.36 L352.50,65.27 L353.75,65.19 L355.00,65.11 L356.25,65.03 L357.50,64.96 L358.75,64.88 L360.00,64.81 L361.25,64.75 L362.50,64.68 L363.75,64.62 L365.00,64.57 L366.25,64.51 L367.50,64.46 L368.75,64.41 L370.00,64.36 L371.25,64.32 L372.50,64.28 L373.75,64.24 L375.00,64.20 L376.25,64.17 L377.50,64.14 L378.75,64.11 L380.00,64.09 L381.25,64.07 L382.50,64.05 L383.75,64.04 L385.00,64.02 L386.25,64.01 L387.50,64.01 L388.75,64.00 L390.00,64.00 L391.25,64.00 L392.50,64.01 L393.75,64.01 L395.00,64.02 L396.25,64.04 L397.50,64.05 L398.75,64.07 L400.00,64.09 L401.25,64.11 L402.50,64.14 L403.75,64.17 L405.00,64.20 L406.25,64.24 L407.50,64.28 L408.75,64.32 L410.00,64.36 L411.25,64.41 L412.50,64.46 L413.75,64.51 L415.00,64.57 L416.25,64.62 L417.50,64.68 L418.75,64.75 L420.00,64.81 L421.25,64.88 L422.50,64.96 L423.75,65.03 L425.00,65.11 L426.25,65.19 L427.50,65.27 L428.75,65.36 L430.00,65.45 L431.25,65.54 L432.50,65.63 L433.75,65.73 L435.00,65.83 L436.25,65.93 L437.50,66.03 L438.75,66.14 L440.00,66.25 L441.25,66.36 L442.50,66.48 L443.75,66.60 L445.00,66.72 L446.25,66.84 L447.50,66.97 L448.75,67.10 L450.00,67.23 L451.25,67.36 L452.50,67.50 L453.75,67.64 L455.00,67.78 L456.25,67.93 L457.50,68.08 L458.75,68.23 L460.00,68.38 L461.25,68.53 L462.50,68.69 L463.75,68.85 L465.00,69.01 L466.25,69.18 L467.50,69.35 L468.75,69.52 L470.00,69.69 L471.25,69.87 L472.50,70.04 L473.75,70.22 L475.00,70.41 L476.25,70.59 L477.50,70.78 L478.75,70.97 L480.00,71.16 L481.25,71.36 L482.50,71.55 L483.75,71.75 L485.00,71.95 L486.25,72.16 L487.50,72.37 L488.75,72.57 L490.00,72.79 L491.25,73.00 L492.50,73.21 L493.75,73.43 L495.00,73.65 L496.25,73.88 L497.50,74.10 L498.75,74.33 L500.00,74.56 L501.25,74.79 L502.50,75.02 L503.75,75.26 L505.00,75.49 L506.25,75.73 L507.50,75.98 L508.75,76.22 L510.00,76.47 L511.25,76.72 L512.50,76.97 L513.75,77.22 L515.00,77.47 L516.25,77.73 L517.50,77.99 L518.75,78.25 L520.00,78.51 L521.25,78.78 L522.50,79.04 L523.75,79.31 L525.00,79.58 L526.25,79.85 L527.50,80.13 L528.75,80.40 L530.00,80.68 L531.25,80.96 L532.50,81.24 L533.75,81.52 L535.00,81.81 L536.25,82.09 L537.50,82.38 L538.75,82.67 L540.00,82.96 L541.25,83.25 L542.50,83.55 L543.75,83.85 L545.00,84.14 L546.25,84.44 L547.50,84.74 L548.75,85.05 L550.00,85.35 L551.25,85.66 L552.50,85.97 L553.75,86.27 L555.00,86.58 L556.25,86.90 L557.50,87.21 L558.75,87.52 L560.00,87.84 L561.25,88.16 L562.50,88.48 L563.75,88.80 L565.00,89.12 L566.25,89.44 L567.50,89.76 L568.75,90.09 L570.00,90.41 L571.25,90.74 L572.50,91.07 L573.75,91.40 L575.00,91.73 L576.25,92.06 L577.50,92.40 L578.75,92.73 L580.00,93.07 L581.25,93.40 L582.50,93.74 L583.75,94.08 L585.00,94.42 L586.25,94.76 L587.50,95.10 L588.75,95.44 L590.00,95.79 L591.25,96.13 L592.50,96.47 L593.75,96.82 L595.00,97.17 L596.25,97.51 L597.50,97.86 L598.75,98.21 L600.00,98.56 L601.25,98.91 L602.50,99.26 L603.75,99.61 L605.00,99.97 L606.25,100.32 L607.50,100.67 L608.75,101.03 L610.00,101.38 L611.25,101.74 L612.50,102.09 L613.75,102.45 L615.00,102.80 L616.25,103.16 L617.50,103.52 L618.75,103.88 L620.00,104.23 L621.25,104.59 L622.50,104.95 L623.75,105.31 L625.00,105.67 L626.25,106.03 L627.50,106.39 L628.75,106.75 L630.00,107.11 L631.25,107.47 L632.50,107.83 L633.75,108.19 L635.00,108.56 L636.25,108.92 L637.50,109.28 L638.75,109.64 L640.00,110.00" fill="none" stroke="#185FA5" stroke-width="2" stroke-linecap="round" stroke-linejoin="round"/>
  <circle cx="140" cy="110" r="4.5" fill="#185FA5"/>
  <circle cx="640" cy="110" r="4.5" fill="#185FA5"/>
  <text x="126" y="110" text-anchor="end" dominant-baseline="central" font-size="13" font-family="var(--font-sans, sans-serif)" font-weight="400" fill="#185FA5">1º harmônico</text>
  <line x1="140" y1="230" x2="640" y2="230" stroke="var(--color-border-tertiary, #ccc)" stroke-width="0.6" stroke-dasharray="4 4"/>
  <path d="M140.00,230.00 L141.25,229.64 L142.50,229.28 L143.75,228.92 L145.00,228.56 L146.25,228.20 L147.50,227.84 L148.75,227.48 L150.00,227.12 L151.25,226.76 L152.50,226.40 L153.75,226.05 L155.00,225.69 L156.25,225.34 L157.50,224.98 L158.75,224.63 L160.00,224.28 L161.25,223.93 L162.50,223.58 L163.75,223.24 L165.00,222.89 L166.25,222.55 L167.50,222.21 L168.75,221.87 L170.00,221.53 L171.25,221.20 L172.50,220.87 L173.75,220.54 L175.00,220.21 L176.25,219.88 L177.50,219.56 L178.75,219.24 L180.00,218.92 L181.25,218.60 L182.50,218.29 L183.75,217.98 L185.00,217.68 L186.25,217.37 L187.50,217.07 L188.75,216.77 L190.00,216.48 L191.25,216.19 L192.50,215.90 L193.75,215.62 L195.00,215.34 L196.25,215.06 L197.50,214.79 L198.75,214.52 L200.00,214.26 L201.25,213.99 L202.50,213.74 L203.75,213.48 L205.00,213.23 L206.25,212.99 L207.50,212.75 L208.75,212.51 L210.00,212.28 L211.25,212.05 L212.50,211.83 L213.75,211.61 L215.00,211.39 L216.25,211.18 L217.50,210.98 L218.75,210.78 L220.00,210.58 L221.25,210.39 L222.50,210.20 L223.75,210.02 L225.00,209.84 L226.25,209.67 L227.50,209.51 L228.75,209.35 L230.00,209.19 L231.25,209.04 L232.50,208.89 L233.75,208.75 L235.00,208.62 L236.25,208.48 L237.50,208.36 L238.75,208.24 L240.00,208.13 L241.25,208.02 L242.50,207.91 L243.75,207.82 L245.00,207.72 L246.25,207.64 L247.50,207.55 L248.75,207.48 L250.00,207.41 L251.25,207.34 L252.50,207.28 L253.75,207.23 L255.00,207.18 L256.25,207.14 L257.50,207.10 L258.75,207.07 L260.00,207.05 L261.25,207.03 L262.50,207.01 L263.75,207.00 L265.00,207.00 L266.25,207.00 L267.50,207.01 L268.75,207.03 L270.00,207.05 L271.25,207.07 L272.50,207.10 L273.75,207.14 L275.00,207.18 L276.25,207.23 L277.50,207.28 L278.75,207.34 L280.00,207.41 L281.25,207.48 L282.50,207.55 L283.75,207.64 L285.00,207.72 L286.25,207.82 L287.50,207.91 L288.75,208.02 L290.00,208.13 L291.25,208.24 L292.50,208.36 L293.75,208.48 L295.00,208.62 L296.25,208.75 L297.50,208.89 L298.75,209.04 L300.00,209.19 L301.25,209.35 L302.50,209.51 L303.75,209.67 L305.00,209.84 L306.25,210.02 L307.50,210.20 L308.75,210.39 L310.00,210.58 L311.25,210.78 L312.50,210.98 L313.75,211.18 L315.00,211.39 L316.25,211.61 L317.50,211.83 L318.75,212.05 L320.00,212.28 L321.25,212.51 L322.50,212.75 L323.75,212.99 L325.00,213.23 L326.25,213.48 L327.50,213.74 L328.75,213.99 L330.00,214.26 L331.25,214.52 L332.50,214.79 L333.75,215.06 L335.00,215.34 L336.25,215.62 L337.50,215.90 L338.75,216.19 L340.00,216.48 L341.25,216.77 L342.50,217.07 L343.75,217.37 L345.00,217.68 L346.25,217.98 L347.50,218.29 L348.75,218.60 L350.00,218.92 L351.25,219.24 L352.50,219.56 L353.75,219.88 L355.00,220.21 L356.25,220.54 L357.50,220.87 L358.75,221.20 L360.00,221.53 L361.25,221.87 L362.50,222.21 L363.75,222.55 L365.00,222.89 L366.25,223.24 L367.50,223.58 L368.75,223.93 L370.00,224.28 L371.25,224.63 L372.50,224.98 L373.75,225.34 L375.00,225.69 L376.25,226.05 L377.50,226.40 L378.75,226.76 L380.00,227.12 L381.25,227.48 L382.50,227.84 L383.75,228.20 L385.00,228.56 L386.25,228.92 L387.50,229.28 L388.75,229.64 L390.00,230.00 L391.25,230.36 L392.50,230.72 L393.75,231.08 L395.00,231.44 L396.25,231.80 L397.50,232.16 L398.75,232.52 L400.00,232.88 L401.25,233.24 L402.50,233.60 L403.75,233.95 L405.00,234.31 L406.25,234.66 L407.50,235.02 L408.75,235.37 L410.00,235.72 L411.25,236.07 L412.50,236.42 L413.75,236.76 L415.00,237.11 L416.25,237.45 L417.50,237.79 L418.75,238.13 L420.00,238.47 L421.25,238.80 L422.50,239.13 L423.75,239.46 L425.00,239.79 L426.25,240.12 L427.50,240.44 L428.75,240.76 L430.00,241.08 L431.25,241.40 L432.50,241.71 L433.75,242.02 L435.00,242.32 L436.25,242.63 L437.50,242.93 L438.75,243.23 L440.00,243.52 L441.25,243.81 L442.50,244.10 L443.75,244.38 L445.00,244.66 L446.25,244.94 L447.50,245.21 L448.75,245.48 L450.00,245.74 L451.25,246.01 L452.50,246.26 L453.75,246.52 L455.00,246.77 L456.25,247.01 L457.50,247.25 L458.75,247.49 L460.00,247.72 L461.25,247.95 L462.50,248.17 L463.75,248.39 L465.00,248.61 L466.25,248.82 L467.50,249.02 L468.75,249.22 L470.00,249.42 L471.25,249.61 L472.50,249.80 L473.75,249.98 L475.00,250.16 L476.25,250.33 L477.50,250.49 L478.75,250.65 L480.00,250.81 L481.25,250.96 L482.50,251.11 L483.75,251.25 L485.00,251.38 L486.25,251.52 L487.50,251.64 L488.75,251.76 L490.00,251.87 L491.25,251.98 L492.50,252.09 L493.75,252.18 L495.00,252.28 L496.25,252.36 L497.50,252.45 L498.75,252.52 L500.00,252.59 L501.25,252.66 L502.50,252.72 L503.75,252.77 L505.00,252.82 L506.25,252.86 L507.50,252.90 L508.75,252.93 L510.00,252.95 L511.25,252.97 L512.50,252.99 L513.75,253.00 L515.00,253.00 L516.25,253.00 L517.50,252.99 L518.75,252.97 L520.00,252.95 L521.25,252.93 L522.50,252.90 L523.75,252.86 L525.00,252.82 L526.25,252.77 L527.50,252.72 L528.75,252.66 L530.00,252.59 L531.25,252.52 L532.50,252.45 L533.75,252.36 L535.00,252.28 L536.25,252.18 L537.50,252.09 L538.75,251.98 L540.00,251.87 L541.25,251.76 L542.50,251.64 L543.75,251.52 L545.00,251.38 L546.25,251.25 L547.50,251.11 L548.75,250.96 L550.00,250.81 L551.25,250.65 L552.50,250.49 L553.75,250.33 L555.00,250.16 L556.25,249.98 L557.50,249.80 L558.75,249.61 L560.00,249.42 L561.25,249.22 L562.50,249.02 L563.75,248.82 L565.00,248.61 L566.25,248.39 L567.50,248.17 L568.75,247.95 L570.00,247.72 L571.25,247.49 L572.50,247.25 L573.75,247.01 L575.00,246.77 L576.25,246.52 L577.50,246.26 L578.75,246.01 L580.00,245.74 L581.25,245.48 L582.50,245.21 L583.75,244.94 L585.00,244.66 L586.25,244.38 L587.50,244.10 L588.75,243.81 L590.00,243.52 L591.25,243.23 L592.50,242.93 L593.75,242.63 L595.00,242.32 L596.25,242.02 L597.50,241.71 L598.75,241.40 L600.00,241.08 L601.25,240.76 L602.50,240.44 L603.75,240.12 L605.00,239.79 L606.25,239.46 L607.50,239.13 L608.75,238.80 L610.00,238.47 L611.25,238.13 L612.50,237.79 L613.75,237.45 L615.00,237.11 L616.25,236.76 L617.50,236.42 L618.75,236.07 L620.00,235.72 L621.25,235.37 L622.50,235.02 L623.75,234.66 L625.00,234.31 L626.25,233.95 L627.50,233.60 L628.75,233.24 L630.00,232.88 L631.25,232.52 L632.50,232.16 L633.75,231.80 L635.00,231.44 L636.25,231.08 L637.50,230.72 L638.75,230.36 L640.00,230.00" fill="none" stroke="#0F6E56" stroke-width="2" stroke-linecap="round" stroke-linejoin="round"/>
  <circle cx="140" cy="230" r="4.5" fill="#0F6E56"/>
  <circle cx="640" cy="230" r="4.5" fill="#0F6E56"/>
  <circle cx="390.00" cy="230" r="4.5" fill="var(--color-background-primary, #fff)" stroke="#0F6E56" stroke-width="1.5"/>
  <text x="126" y="230" text-anchor="end" dominant-baseline="central" font-size="13" font-family="var(--font-sans, sans-serif)" font-weight="400" fill="#0F6E56">2º harmônico</text>
  <line x1="140" y1="350" x2="640" y2="350" stroke="var(--color-border-tertiary, #ccc)" stroke-width="0.6" stroke-dasharray="4 4"/>
  <path d="M140.00,350.00 L141.25,349.64 L142.50,349.28 L143.75,348.93 L145.00,348.57 L146.25,348.22 L147.50,347.86 L148.75,347.51 L150.00,347.16 L151.25,346.81 L152.50,346.46 L153.75,346.11 L155.00,345.76 L156.25,345.42 L157.50,345.08 L158.75,344.75 L160.00,344.41 L161.25,344.08 L162.50,343.75 L163.75,343.43 L165.00,343.11 L166.25,342.79 L167.50,342.48 L168.75,342.17 L170.00,341.87 L171.25,341.57 L172.50,341.27 L173.75,340.98 L175.00,340.70 L176.25,340.42 L177.50,340.14 L178.75,339.87 L180.00,339.61 L181.25,339.35 L182.50,339.10 L183.75,338.85 L185.00,338.61 L186.25,338.38 L187.50,338.15 L188.75,337.93 L190.00,337.72 L191.25,337.51 L192.50,337.31 L193.75,337.12 L195.00,336.93 L196.25,336.76 L197.50,336.58 L198.75,336.42 L200.00,336.26 L201.25,336.12 L202.50,335.98 L203.75,335.84 L205.00,335.72 L206.25,335.60 L207.50,335.49 L208.75,335.39 L210.00,335.30 L211.25,335.21 L212.50,335.14 L213.75,335.07 L215.00,335.01 L216.25,334.96 L217.50,334.91 L218.75,334.88 L220.00,334.85 L221.25,334.83 L222.50,334.82 L223.75,334.82 L225.00,334.83 L226.25,334.84 L227.50,334.87 L228.75,334.90 L230.00,334.94 L231.25,334.99 L232.50,335.05 L233.75,335.11 L235.00,335.19 L236.25,335.27 L237.50,335.36 L238.75,335.46 L240.00,335.56 L241.25,335.68 L242.50,335.80 L243.75,335.93 L245.00,336.07 L246.25,336.21 L247.50,336.37 L248.75,336.53 L250.00,336.70 L251.25,336.87 L252.50,337.06 L253.75,337.25 L255.00,337.44 L256.25,337.65 L257.50,337.86 L258.75,338.08 L260.00,338.30 L261.25,338.53 L262.50,338.77 L263.75,339.02 L265.00,339.27 L266.25,339.52 L267.50,339.78 L268.75,340.05 L270.00,340.32 L271.25,340.60 L272.50,340.89 L273.75,341.17 L275.00,341.47 L276.25,341.77 L277.50,342.07 L278.75,342.38 L280.00,342.69 L281.25,343.00 L282.50,343.32 L283.75,343.64 L285.00,343.97 L286.25,344.30 L287.50,344.63 L288.75,344.97 L290.00,345.31 L291.25,345.65 L292.50,345.99 L293.75,346.34 L295.00,346.69 L296.25,347.04 L297.50,347.39 L298.75,347.74 L300.00,348.10 L301.25,348.45 L302.50,348.81 L303.75,349.17 L305.00,349.52 L306.25,349.88 L307.50,350.24 L308.75,350.60 L310.00,350.95 L311.25,351.31 L312.50,351.67 L313.75,352.02 L315.00,352.37 L316.25,352.73 L317.50,353.08 L318.75,353.43 L320.00,353.78 L321.25,354.12 L322.50,354.46 L323.75,354.80 L325.00,355.14 L326.25,355.48 L327.50,355.81 L328.75,356.14 L330.00,356.46 L331.25,356.79 L332.50,357.10 L333.75,357.42 L335.00,357.73 L336.25,358.03 L337.50,358.33 L338.75,358.63 L340.00,358.92 L341.25,359.21 L342.50,359.49 L343.75,359.77 L345.00,360.04 L346.25,360.30 L347.50,360.56 L348.75,360.82 L350.00,361.07 L351.25,361.31 L352.50,361.54 L353.75,361.77 L355.00,361.99 L356.25,362.21 L357.50,362.42 L358.75,362.62 L360.00,362.82 L361.25,363.00 L362.50,363.19 L363.75,363.36 L365.00,363.53 L366.25,363.68 L367.50,363.84 L368.75,363.98 L370.00,364.11 L371.25,364.24 L372.50,364.36 L373.75,364.47 L375.00,364.58 L376.25,364.67 L377.50,364.76 L378.75,364.84 L380.00,364.91 L381.25,364.97 L382.50,365.03 L383.75,365.07 L385.00,365.11 L386.25,365.14 L387.50,365.16 L388.75,365.18 L390.00,365.18 L391.25,365.18 L392.50,365.16 L393.75,365.14 L395.00,365.11 L396.25,365.07 L397.50,365.03 L398.75,364.97 L400.00,364.91 L401.25,364.84 L402.50,364.76 L403.75,364.67 L405.00,364.58 L406.25,364.47 L407.50,364.36 L408.75,364.24 L410.00,364.11 L411.25,363.98 L412.50,363.84 L413.75,363.68 L415.00,363.53 L416.25,363.36 L417.50,363.19 L418.75,363.00 L420.00,362.82 L421.25,362.62 L422.50,362.42 L423.75,362.21 L425.00,361.99 L426.25,361.77 L427.50,361.54 L428.75,361.31 L430.00,361.07 L431.25,360.82 L432.50,360.56 L433.75,360.30 L435.00,360.04 L436.25,359.77 L437.50,359.49 L438.75,359.21 L440.00,358.92 L441.25,358.63 L442.50,358.33 L443.75,358.03 L445.00,357.73 L446.25,357.42 L447.50,357.10 L448.75,356.79 L450.00,356.46 L451.25,356.14 L452.50,355.81 L453.75,355.48 L455.00,355.14 L456.25,354.80 L457.50,354.46 L458.75,354.12 L460.00,353.78 L461.25,353.43 L462.50,353.08 L463.75,352.73 L465.00,352.37 L466.25,352.02 L467.50,351.67 L468.75,351.31 L470.00,350.95 L471.25,350.60 L472.50,350.24 L473.75,349.88 L475.00,349.52 L476.25,349.17 L477.50,348.81 L478.75,348.45 L480.00,348.10 L481.25,347.74 L482.50,347.39 L483.75,347.04 L485.00,346.69 L486.25,346.34 L487.50,345.99 L488.75,345.65 L490.00,345.31 L491.25,344.97 L492.50,344.63 L493.75,344.30 L495.00,343.97 L496.25,343.64 L497.50,343.32 L498.75,343.00 L500.00,342.69 L501.25,342.38 L502.50,342.07 L503.75,341.77 L505.00,341.47 L506.25,341.17 L507.50,340.89 L508.75,340.60 L510.00,340.32 L511.25,340.05 L512.50,339.78 L513.75,339.52 L515.00,339.27 L516.25,339.02 L517.50,338.77 L518.75,338.53 L520.00,338.30 L521.25,338.08 L522.50,337.86 L523.75,337.65 L525.00,337.44 L526.25,337.25 L527.50,337.06 L528.75,336.87 L530.00,336.70 L531.25,336.53 L532.50,336.37 L533.75,336.21 L535.00,336.07 L536.25,335.93 L537.50,335.80 L538.75,335.68 L540.00,335.56 L541.25,335.46 L542.50,335.36 L543.75,335.27 L545.00,335.19 L546.25,335.11 L547.50,335.05 L548.75,334.99 L550.00,334.94 L551.25,334.90 L552.50,334.87 L553.75,334.84 L555.00,334.83 L556.25,334.82 L557.50,334.82 L558.75,334.83 L560.00,334.85 L561.25,334.88 L562.50,334.91 L563.75,334.96 L565.00,335.01 L566.25,335.07 L567.50,335.14 L568.75,335.21 L570.00,335.30 L571.25,335.39 L572.50,335.49 L573.75,335.60 L575.00,335.72 L576.25,335.84 L577.50,335.98 L578.75,336.12 L580.00,336.26 L581.25,336.42 L582.50,336.58 L583.75,336.76 L585.00,336.93 L586.25,337.12 L587.50,337.31 L588.75,337.51 L590.00,337.72 L591.25,337.93 L592.50,338.15 L593.75,338.38 L595.00,338.61 L596.25,338.85 L597.50,339.10 L598.75,339.35 L600.00,339.61 L601.25,339.87 L602.50,340.14 L603.75,340.42 L605.00,340.70 L606.25,340.98 L607.50,341.27 L608.75,341.57 L610.00,341.87 L611.25,342.17 L612.50,342.48 L613.75,342.79 L615.00,343.11 L616.25,343.43 L617.50,343.75 L618.75,344.08 L620.00,344.41 L621.25,344.75 L622.50,345.08 L623.75,345.42 L625.00,345.76 L626.25,346.11 L627.50,346.46 L628.75,346.81 L630.00,347.16 L631.25,347.51 L632.50,347.86 L633.75,348.22 L635.00,348.57 L636.25,348.93 L637.50,349.28 L638.75,349.64 L640.00,350.00" fill="none" stroke="#854F0B" stroke-width="2" stroke-linecap="round" stroke-linejoin="round"/>
  <circle cx="140" cy="350" r="4.5" fill="#854F0B"/>
  <circle cx="640" cy="350" r="4.5" fill="#854F0B"/>
  <circle cx="306.67" cy="350" r="4.5" fill="var(--color-background-primary, #fff)" stroke="#854F0B" stroke-width="1.5"/>
  <circle cx="473.33" cy="350" r="4.5" fill="var(--color-background-primary, #fff)" stroke="#854F0B" stroke-width="1.5"/>
  <text x="126" y="350" text-anchor="end" dominant-baseline="central" font-size="13" font-family="var(--font-sans, sans-serif)" font-weight="400" fill="#854F0B">3º harmônico</text>
  <line x1="140" y1="470" x2="640" y2="470" stroke="var(--color-border-tertiary, #ccc)" stroke-width="0.6" stroke-dasharray="4 4"/>
  <path d="M140.00,470.00 L141.25,468.92 L142.50,467.84 L143.75,466.76 L145.00,465.68 L146.25,464.61 L147.50,463.53 L148.75,462.46 L150.00,461.38 L151.25,460.32 L152.50,459.25 L153.75,458.19 L155.00,457.13 L156.25,456.07 L157.50,455.02 L158.75,453.97 L160.00,452.93 L161.25,451.89 L162.50,450.85 L163.75,449.83 L165.00,448.81 L166.25,447.79 L167.50,446.78 L168.75,445.78 L170.00,444.78 L171.25,443.79 L172.50,442.81 L173.75,441.83 L175.00,440.87 L176.25,439.91 L177.50,438.96 L178.75,438.02 L180.00,437.09 L181.25,436.17 L182.50,435.25 L183.75,434.35 L185.00,433.46 L186.25,432.57 L187.50,431.70 L188.75,430.84 L190.00,429.99 L191.25,429.14 L192.50,428.32 L193.75,427.50 L195.00,426.69 L196.25,425.90 L197.50,425.11 L198.75,424.34 L200.00,423.59 L201.25,422.84 L202.50,422.11 L203.75,421.39 L205.00,420.68 L206.25,419.99 L207.50,419.31 L208.75,418.64 L210.00,417.99 L211.25,417.35 L212.50,416.72 L213.75,416.11 L215.00,415.52 L216.25,414.93 L217.50,414.36 L218.75,413.81 L220.00,413.27 L221.25,412.74 L222.50,412.23 L223.75,411.74 L225.00,411.26 L226.25,410.79 L227.50,410.34 L228.75,409.90 L230.00,409.48 L231.25,409.07 L232.50,408.68 L233.75,408.31 L235.00,407.94 L236.25,407.60 L237.50,407.27 L238.75,406.95 L240.00,406.65 L241.25,406.36 L242.50,406.09 L243.75,405.84 L245.00,405.60 L246.25,405.37 L247.50,405.16 L248.75,404.96 L250.00,404.78 L251.25,404.62 L252.50,404.47 L253.75,404.33 L255.00,404.21 L256.25,404.10 L257.50,404.00 L258.75,403.92 L260.00,403.86 L261.25,403.81 L262.50,403.77 L263.75,403.75 L265.00,403.74 L266.25,403.74 L267.50,403.76 L268.75,403.79 L270.00,403.84 L271.25,403.89 L272.50,403.96 L273.75,404.05 L275.00,404.14 L276.25,404.25 L277.50,404.37 L278.75,404.51 L280.00,404.65 L281.25,404.81 L282.50,404.98 L283.75,405.16 L285.00,405.35 L286.25,405.55 L287.50,405.76 L288.75,405.99 L290.00,406.22 L291.25,406.46 L292.50,406.72 L293.75,406.98 L295.00,407.26 L296.25,407.54 L297.50,407.83 L298.75,408.14 L300.00,408.45 L301.25,408.77 L302.50,409.09 L303.75,409.43 L305.00,409.77 L306.25,410.13 L307.50,410.48 L308.75,410.85 L310.00,411.22 L311.25,411.60 L312.50,411.99 L313.75,412.38 L315.00,412.78 L316.25,413.19 L317.50,413.60 L318.75,414.01 L320.00,414.43 L321.25,414.86 L322.50,415.29 L323.75,415.72 L325.00,416.16 L326.25,416.60 L327.50,417.05 L328.75,417.50 L330.00,417.95 L331.25,418.40 L332.50,418.86 L333.75,419.32 L335.00,419.79 L336.25,420.25 L337.50,420.72 L338.75,421.19 L340.00,421.65 L341.25,422.13 L342.50,422.60 L343.75,423.07 L345.00,423.54 L346.25,424.01 L347.50,424.49 L348.75,424.96 L350.00,425.43 L351.25,425.90 L352.50,426.37 L353.75,426.84 L355.00,427.31 L356.25,427.78 L357.50,428.24 L358.75,428.70 L360.00,429.16 L361.25,429.62 L362.50,430.08 L363.75,430.53 L365.00,430.98 L366.25,431.43 L367.50,431.88 L368.75,432.32 L370.00,432.76 L371.25,433.19 L372.50,433.62 L373.75,434.05 L375.00,434.47 L376.25,434.89 L377.50,435.30 L378.75,435.71 L380.00,436.12 L381.25,436.52 L382.50,436.92 L383.75,437.31 L385.00,437.69 L386.25,438.07 L387.50,438.45 L388.75,438.82 L390.00,439.18 L391.25,439.54 L392.50,439.89 L393.75,440.24 L395.00,440.58 L396.25,440.91 L397.50,441.24 L398.75,441.57 L400.00,441.88 L401.25,442.20 L402.50,442.50 L403.75,442.80 L405.00,443.09 L406.25,443.38 L407.50,443.66 L408.75,443.93 L410.00,444.20 L411.25,444.46 L412.50,444.71 L413.75,444.96 L415.00,445.20 L416.25,445.43 L417.50,445.66 L418.75,445.88 L420.00,446.10 L421.25,446.31 L422.50,446.51 L423.75,446.71 L425.00,446.90 L426.25,447.08 L427.50,447.26 L428.75,447.43 L430.00,447.59 L431.25,447.75 L432.50,447.90 L433.75,448.05 L435.00,448.19 L436.25,448.32 L437.50,448.45 L438.75,448.58 L440.00,448.69 L441.25,448.80 L442.50,448.91 L443.75,449.01 L445.00,449.11 L446.25,449.20 L447.50,449.28 L448.75,449.36 L450.00,449.44 L451.25,449.51 L452.50,449.57 L453.75,449.64 L455.00,449.69 L456.25,449.74 L457.50,449.79 L458.75,449.84 L460.00,449.87 L461.25,449.91 L462.50,449.94 L463.75,449.97 L465.00,450.00 L466.25,450.02 L467.50,450.04 L468.75,450.05 L470.00,450.06 L471.25,450.07 L472.50,450.08 L473.75,450.08 L475.00,450.08 L476.25,450.08 L477.50,450.08 L478.75,450.08 L480.00,450.07 L481.25,450.06 L482.50,450.05 L483.75,450.04 L485.00,450.03 L486.25,450.01 L487.50,450.00 L488.75,449.98 L490.00,449.97 L491.25,449.95 L492.50,449.94 L493.75,449.92 L495.00,449.90 L496.25,449.88 L497.50,449.87 L498.75,449.85 L500.00,449.84 L501.25,449.82 L502.50,449.81 L503.75,449.79 L505.00,449.78 L506.25,449.77 L507.50,449.76 L508.75,449.75 L510.00,449.75 L511.25,449.74 L512.50,449.74 L513.75,449.74 L515.00,449.74 L516.25,449.74 L517.50,449.75 L518.75,449.76 L520.00,449.77 L521.25,449.78 L522.50,449.80 L523.75,449.82 L525.00,449.84 L526.25,449.87 L527.50,449.90 L528.75,449.93 L530.00,449.97 L531.25,450.01 L532.50,450.05 L533.75,450.10 L535.00,450.15 L536.25,450.21 L537.50,450.27 L538.75,450.33 L540.00,450.40 L541.25,450.47 L542.50,450.55 L543.75,450.63 L545.00,450.71 L546.25,450.80 L547.50,450.90 L548.75,451.00 L550.00,451.10 L551.25,451.21 L552.50,451.33 L553.75,451.44 L555.00,451.57 L556.25,451.69 L557.50,451.83 L558.75,451.97 L560.00,452.11 L561.25,452.26 L562.50,452.41 L563.75,452.57 L565.00,452.73 L566.25,452.90 L567.50,453.07 L568.75,453.25 L570.00,453.43 L571.25,453.62 L572.50,453.81 L573.75,454.01 L575.00,454.21 L576.25,454.42 L577.50,454.64 L578.75,454.85 L580.00,455.08 L581.25,455.30 L582.50,455.53 L583.75,455.77 L585.00,456.01 L586.25,456.26 L587.50,456.51 L588.75,456.76 L590.00,457.02 L591.25,457.29 L592.50,457.56 L593.75,457.83 L595.00,458.10 L596.25,458.38 L597.50,458.67 L598.75,458.96 L600.00,459.25 L601.25,459.55 L602.50,459.84 L603.75,460.15 L605.00,460.45 L606.25,460.76 L607.50,461.08 L608.75,461.39 L610.00,461.71 L611.25,462.04 L612.50,462.36 L613.75,462.69 L615.00,463.02 L616.25,463.35 L617.50,463.69 L618.75,464.03 L620.00,464.37 L621.25,464.71 L622.50,465.05 L623.75,465.40 L625.00,465.75 L626.25,466.09 L627.50,466.45 L628.75,466.80 L630.00,467.15 L631.25,467.50 L632.50,467.86 L633.75,468.21 L635.00,468.57 L636.25,468.93 L637.50,469.28 L638.75,469.64 L640.00,470.00" fill="none" stroke="#533AB7" stroke-width="2.5" stroke-linecap="round" stroke-linejoin="round"/>
  <circle cx="140" cy="470" r="4.5" fill="#533AB7"/>
  <circle cx="640" cy="470" r="4.5" fill="#533AB7"/>
  <text x="126" y="470" text-anchor="end" dominant-baseline="central" font-size="13" font-family="var(--font-sans, sans-serif)" font-weight="500" fill="#533AB7">soma (1+2+3)</text>
</svg>