<svg viewBox="0 0 680 510" width="100%" xmlns="http://www.w3.org/2000/svg" role="img" aria-labelledby="svg-title-violino svg-desc-violino">
  <title id="svg-title-violino">Modos de vibração — violino (representação aproximada)</title>
  <desc id="svg-desc-violino">Quatro cordas: 1º, 2º e 3º harmônicos com amplitudes comparáveis, e soma dos três produzindo curva irregular e complexa.</desc>
  <text x="340" y="28" text-anchor="middle" font-size="25" font-family="var(--font-sans, sans-serif)" font-weight="600" fill="var(--color-text-primary, #1a1a18)">Harmônicos num violino</text>
  <line x1="140" y1="110" x2="640" y2="110" stroke="var(--color-border-tertiary, #333)" stroke-width="1.5" stroke-dasharray="5 4"/>
  <path d="M140.00,110.00 L141.25,109.78 L142.50,109.56 L143.75,109.34 L145.00,109.12 L146.25,108.90 L147.50,108.68 L148.75,108.46 L150.00,108.24 L151.25,108.02 L152.50,107.80 L153.75,107.58 L155.00,107.36 L156.25,107.15 L157.50,106.93 L158.75,106.71 L160.00,106.49 L161.25,106.27 L162.50,106.05 L163.75,105.84 L165.00,105.62 L166.25,105.40 L167.50,105.19 L168.75,104.97 L170.00,104.75 L171.25,104.54 L172.50,104.32 L173.75,104.11 L175.00,103.89 L176.25,103.68 L177.50,103.46 L178.75,103.25 L180.00,103.04 L181.25,102.82 L182.50,102.61 L183.75,102.40 L185.00,102.19 L186.25,101.98 L187.50,101.77 L188.75,101.56 L190.00,101.35 L191.25,101.14 L192.50,100.93 L193.75,100.72 L195.00,100.52 L196.25,100.31 L197.50,100.10 L198.75,99.90 L200.00,99.69 L201.25,99.49 L202.50,99.28 L203.75,99.08 L205.00,98.88 L206.25,98.68 L207.50,98.48 L208.75,98.28 L210.00,98.08 L211.25,97.88 L212.50,97.68 L213.75,97.48 L215.00,97.29 L216.25,97.09 L217.50,96.90 L218.75,96.70 L220.00,96.51 L221.25,96.32 L222.50,96.13 L223.75,95.94 L225.00,95.75 L226.25,95.56 L227.50,95.37 L228.75,95.18 L230.00,95.00 L231.25,94.81 L232.50,94.63 L233.75,94.44 L235.00,94.26 L236.25,94.08 L237.50,93.90 L238.75,93.72 L240.00,93.54 L241.25,93.36 L242.50,93.19 L243.75,93.01 L245.00,92.84 L246.25,92.67 L247.50,92.49 L248.75,92.32 L250.00,92.15 L251.25,91.98 L252.50,91.82 L253.75,91.65 L255.00,91.48 L256.25,91.32 L257.50,91.16 L258.75,90.99 L260.00,90.83 L261.25,90.67 L262.50,90.51 L263.75,90.36 L265.00,90.20 L266.25,90.05 L267.50,89.89 L268.75,89.74 L270.00,89.59 L271.25,89.44 L272.50,89.29 L273.75,89.14 L275.00,89.00 L276.25,88.85 L277.50,88.71 L278.75,88.57 L280.00,88.43 L281.25,88.29 L282.50,88.15 L283.75,88.01 L285.00,87.88 L286.25,87.74 L287.50,87.61 L288.75,87.48 L290.00,87.35 L291.25,87.22 L292.50,87.09 L293.75,86.97 L295.00,86.84 L296.25,86.72 L297.50,86.60 L298.75,86.48 L300.00,86.36 L301.25,86.24 L302.50,86.13 L303.75,86.01 L305.00,85.90 L306.25,85.79 L307.50,85.68 L308.75,85.57 L310.00,85.46 L311.25,85.36 L312.50,85.25 L313.75,85.15 L315.00,85.05 L316.25,84.95 L317.50,84.86 L318.75,84.76 L320.00,84.66 L321.25,84.57 L322.50,84.48 L323.75,84.39 L325.00,84.30 L326.25,84.22 L327.50,84.13 L328.75,84.05 L330.00,83.97 L331.25,83.89 L332.50,83.81 L333.75,83.73 L335.00,83.66 L336.25,83.58 L337.50,83.51 L338.75,83.44 L340.00,83.37 L341.25,83.30 L342.50,83.24 L343.75,83.17 L345.00,83.11 L346.25,83.05 L347.50,82.99 L348.75,82.94 L350.00,82.88 L351.25,82.83 L352.50,82.77 L353.75,82.72 L355.00,82.67 L356.25,82.63 L357.50,82.58 L358.75,82.54 L360.00,82.50 L361.25,82.46 L362.50,82.42 L363.75,82.38 L365.00,82.34 L366.25,82.31 L367.50,82.28 L368.75,82.25 L370.00,82.22 L371.25,82.19 L372.50,82.17 L373.75,82.15 L375.00,82.12 L376.25,82.10 L377.50,82.09 L378.75,82.07 L380.00,82.06 L381.25,82.04 L382.50,82.03 L383.75,82.02 L385.00,82.01 L386.25,82.01 L387.50,82.00 L388.75,82.00 L390.00,82.00 L391.25,82.00 L392.50,82.00 L393.75,82.01 L395.00,82.01 L396.25,82.02 L397.50,82.03 L398.75,82.04 L400.00,82.06 L401.25,82.07 L402.50,82.09 L403.75,82.10 L405.00,82.12 L406.25,82.15 L407.50,82.17 L408.75,82.19 L410.00,82.22 L411.25,82.25 L412.50,82.28 L413.75,82.31 L415.00,82.34 L416.25,82.38 L417.50,82.42 L418.75,82.46 L420.00,82.50 L421.25,82.54 L422.50,82.58 L423.75,82.63 L425.00,82.67 L426.25,82.72 L427.50,82.77 L428.75,82.83 L430.00,82.88 L431.25,82.94 L432.50,82.99 L433.75,83.05 L435.00,83.11 L436.25,83.17 L437.50,83.24 L438.75,83.30 L440.00,83.37 L441.25,83.44 L442.50,83.51 L443.75,83.58 L445.00,83.66 L446.25,83.73 L447.50,83.81 L448.75,83.89 L450.00,83.97 L451.25,84.05 L452.50,84.13 L453.75,84.22 L455.00,84.30 L456.25,84.39 L457.50,84.48 L458.75,84.57 L460.00,84.66 L461.25,84.76 L462.50,84.86 L463.75,84.95 L465.00,85.05 L466.25,85.15 L467.50,85.25 L468.75,85.36 L470.00,85.46 L471.25,85.57 L472.50,85.68 L473.75,85.79 L475.00,85.90 L476.25,86.01 L477.50,86.13 L478.75,86.24 L480.00,86.36 L481.25,86.48 L482.50,86.60 L483.75,86.72 L485.00,86.84 L486.25,86.97 L487.50,87.09 L488.75,87.22 L490.00,87.35 L491.25,87.48 L492.50,87.61 L493.75,87.74 L495.00,87.88 L496.25,88.01 L497.50,88.15 L498.75,88.29 L500.00,88.43 L501.25,88.57 L502.50,88.71 L503.75,88.85 L505.00,89.00 L506.25,89.14 L507.50,89.29 L508.75,89.44 L510.00,89.59 L511.25,89.74 L512.50,89.89 L513.75,90.05 L515.00,90.20 L516.25,90.36 L517.50,90.51 L518.75,90.67 L520.00,90.83 L521.25,90.99 L522.50,91.16 L523.75,91.32 L525.00,91.48 L526.25,91.65 L527.50,91.82 L528.75,91.98 L530.00,92.15 L531.25,92.32 L532.50,92.49 L533.75,92.67 L535.00,92.84 L536.25,93.01 L537.50,93.19 L538.75,93.36 L540.00,93.54 L541.25,93.72 L542.50,93.90 L543.75,94.08 L545.00,94.26 L546.25,94.44 L547.50,94.63 L548.75,94.81 L550.00,95.00 L551.25,95.18 L552.50,95.37 L553.75,95.56 L555.00,95.75 L556.25,95.94 L557.50,96.13 L558.75,96.32 L560.00,96.51 L561.25,96.70 L562.50,96.90 L563.75,97.09 L565.00,97.29 L566.25,97.48 L567.50,97.68 L568.75,97.88 L570.00,98.08 L571.25,98.28 L572.50,98.48 L573.75,98.68 L575.00,98.88 L576.25,99.08 L577.50,99.28 L578.75,99.49 L580.00,99.69 L581.25,99.90 L582.50,100.10 L583.75,100.31 L585.00,100.52 L586.25,100.72 L587.50,100.93 L588.75,101.14 L590.00,101.35 L591.25,101.56 L592.50,101.77 L593.75,101.98 L595.00,102.19 L596.25,102.40 L597.50,102.61 L598.75,102.82 L600.00,103.04 L601.25,103.25 L602.50,103.46 L603.75,103.68 L605.00,103.89 L606.25,104.11 L607.50,104.32 L608.75,104.54 L610.00,104.75 L611.25,104.97 L612.50,105.19 L613.75,105.40 L615.00,105.62 L616.25,105.84 L617.50,106.05 L618.75,106.27 L620.00,106.49 L621.25,106.71 L622.50,106.93 L623.75,107.15 L625.00,107.36 L626.25,107.58 L627.50,107.80 L628.75,108.02 L630.00,108.24 L631.25,108.46 L632.50,108.68 L633.75,108.90 L635.00,109.12 L636.25,109.34 L637.50,109.56 L638.75,109.78 L640.00,110.00" fill="none" stroke="#185FA5" stroke-width="2" stroke-linecap="round" stroke-linejoin="round"/>
  <circle cx="140" cy="110" r="4.5" fill="#185FA5"/>
  <circle cx="640" cy="110" r="4.5" fill="#185FA5"/>
  <text x="126" y="110" text-anchor="end" dominant-baseline="central" font-size="13" font-family="var(--font-sans, sans-serif)" font-weight="400" fill="#185FA5">1º harmônico</text>
  <line x1="140" y1="230" x2="640" y2="230" stroke="var(--color-border-tertiary, #333)" stroke-width="1.5" stroke-dasharray="5 4"/>
  <path d="M140.00,230.00 L141.25,229.59 L142.50,229.18 L143.75,228.78 L145.00,228.37 L146.25,227.96 L147.50,227.55 L148.75,227.15 L150.00,226.74 L151.25,226.34 L152.50,225.93 L153.75,225.53 L155.00,225.13 L156.25,224.73 L157.50,224.33 L158.75,223.93 L160.00,223.53 L161.25,223.14 L162.50,222.75 L163.75,222.35 L165.00,221.97 L166.25,221.58 L167.50,221.19 L168.75,220.81 L170.00,220.43 L171.25,220.05 L172.50,219.67 L173.75,219.30 L175.00,218.93 L176.25,218.56 L177.50,218.20 L178.75,217.83 L180.00,217.47 L181.25,217.12 L182.50,216.76 L183.75,216.42 L185.00,216.07 L186.25,215.73 L187.50,215.39 L188.75,215.05 L190.00,214.72 L191.25,214.39 L192.50,214.06 L193.75,213.74 L195.00,213.43 L196.25,213.11 L197.50,212.81 L198.75,212.50 L200.00,212.20 L201.25,211.91 L202.50,211.62 L203.75,211.33 L205.00,211.05 L206.25,210.77 L207.50,210.50 L208.75,210.23 L210.00,209.97 L211.25,209.71 L212.50,209.46 L213.75,209.21 L215.00,208.97 L216.25,208.73 L217.50,208.50 L218.75,208.27 L220.00,208.05 L221.25,207.83 L222.50,207.62 L223.75,207.42 L225.00,207.22 L226.25,207.02 L227.50,206.83 L228.75,206.65 L230.00,206.47 L231.25,206.30 L232.50,206.14 L233.75,205.98 L235.00,205.83 L236.25,205.68 L237.50,205.54 L238.75,205.40 L240.00,205.27 L241.25,205.15 L242.50,205.03 L243.75,204.92 L245.00,204.82 L246.25,204.72 L247.50,204.63 L248.75,204.54 L250.00,204.46 L251.25,204.39 L252.50,204.32 L253.75,204.26 L255.00,204.21 L256.25,204.16 L257.50,204.12 L258.75,204.08 L260.00,204.05 L261.25,204.03 L262.50,204.01 L263.75,204.00 L265.00,204.00 L266.25,204.00 L267.50,204.01 L268.75,204.03 L270.00,204.05 L271.25,204.08 L272.50,204.12 L273.75,204.16 L275.00,204.21 L276.25,204.26 L277.50,204.32 L278.75,204.39 L280.00,204.46 L281.25,204.54 L282.50,204.63 L283.75,204.72 L285.00,204.82 L286.25,204.92 L287.50,205.03 L288.75,205.15 L290.00,205.27 L291.25,205.40 L292.50,205.54 L293.75,205.68 L295.00,205.83 L296.25,205.98 L297.50,206.14 L298.75,206.30 L300.00,206.47 L301.25,206.65 L302.50,206.83 L303.75,207.02 L305.00,207.22 L306.25,207.42 L307.50,207.62 L308.75,207.83 L310.00,208.05 L311.25,208.27 L312.50,208.50 L313.75,208.73 L315.00,208.97 L316.25,209.21 L317.50,209.46 L318.75,209.71 L320.00,209.97 L321.25,210.23 L322.50,210.50 L323.75,210.77 L325.00,211.05 L326.25,211.33 L327.50,211.62 L328.75,211.91 L330.00,212.20 L331.25,212.50 L332.50,212.81 L333.75,213.11 L335.00,213.43 L336.25,213.74 L337.50,214.06 L338.75,214.39 L340.00,214.72 L341.25,215.05 L342.50,215.39 L343.75,215.73 L345.00,216.07 L346.25,216.42 L347.50,216.76 L348.75,217.12 L350.00,217.47 L351.25,217.83 L352.50,218.20 L353.75,218.56 L355.00,218.93 L356.25,219.30 L357.50,219.67 L358.75,220.05 L360.00,220.43 L361.25,220.81 L362.50,221.19 L363.75,221.58 L365.00,221.97 L366.25,222.35 L367.50,222.75 L368.75,223.14 L370.00,223.53 L371.25,223.93 L372.50,224.33 L373.75,224.73 L375.00,225.13 L376.25,225.53 L377.50,225.93 L378.75,226.34 L380.00,226.74 L381.25,227.15 L382.50,227.55 L383.75,227.96 L385.00,228.37 L386.25,228.78 L387.50,229.18 L388.75,229.59 L390.00,230.00 L391.25,230.41 L392.50,230.82 L393.75,231.22 L395.00,231.63 L396.25,232.04 L397.50,232.45 L398.75,232.85 L400.00,233.26 L401.25,233.66 L402.50,234.07 L403.75,234.47 L405.00,234.87 L406.25,235.27 L407.50,235.67 L408.75,236.07 L410.00,236.47 L411.25,236.86 L412.50,237.25 L413.75,237.65 L415.00,238.03 L416.25,238.42 L417.50,238.81 L418.75,239.19 L420.00,239.57 L421.25,239.95 L422.50,240.33 L423.75,240.70 L425.00,241.07 L426.25,241.44 L427.50,241.80 L428.75,242.17 L430.00,242.53 L431.25,242.88 L432.50,243.24 L433.75,243.58 L435.00,243.93 L436.25,244.27 L437.50,244.61 L438.75,244.95 L440.00,245.28 L441.25,245.61 L442.50,245.94 L443.75,246.26 L445.00,246.57 L446.25,246.89 L447.50,247.19 L448.75,247.50 L450.00,247.80 L451.25,248.09 L452.50,248.38 L453.75,248.67 L455.00,248.95 L456.25,249.23 L457.50,249.50 L458.75,249.77 L460.00,250.03 L461.25,250.29 L462.50,250.54 L463.75,250.79 L465.00,251.03 L466.25,251.27 L467.50,251.50 L468.75,251.73 L470.00,251.95 L471.25,252.17 L472.50,252.38 L473.75,252.58 L475.00,252.78 L476.25,252.98 L477.50,253.17 L478.75,253.35 L480.00,253.53 L481.25,253.70 L482.50,253.86 L483.75,254.02 L485.00,254.17 L486.25,254.32 L487.50,254.46 L488.75,254.60 L490.00,254.73 L491.25,254.85 L492.50,254.97 L493.75,255.08 L495.00,255.18 L496.25,255.28 L497.50,255.37 L498.75,255.46 L500.00,255.54 L501.25,255.61 L502.50,255.68 L503.75,255.74 L505.00,255.79 L506.25,255.84 L507.50,255.88 L508.75,255.92 L510.00,255.95 L511.25,255.97 L512.50,255.99 L513.75,256.00 L515.00,256.00 L516.25,256.00 L517.50,255.99 L518.75,255.97 L520.00,255.95 L521.25,255.92 L522.50,255.88 L523.75,255.84 L525.00,255.79 L526.25,255.74 L527.50,255.68 L528.75,255.61 L530.00,255.54 L531.25,255.46 L532.50,255.37 L533.75,255.28 L535.00,255.18 L536.25,255.08 L537.50,254.97 L538.75,254.85 L540.00,254.73 L541.25,254.60 L542.50,254.46 L543.75,254.32 L545.00,254.17 L546.25,254.02 L547.50,253.86 L548.75,253.70 L550.00,253.53 L551.25,253.35 L552.50,253.17 L553.75,252.98 L555.00,252.78 L556.25,252.58 L557.50,252.38 L558.75,252.17 L560.00,251.95 L561.25,251.73 L562.50,251.50 L563.75,251.27 L565.00,251.03 L566.25,250.79 L567.50,250.54 L568.75,250.29 L570.00,250.03 L571.25,249.77 L572.50,249.50 L573.75,249.23 L575.00,248.95 L576.25,248.67 L577.50,248.38 L578.75,248.09 L580.00,247.80 L581.25,247.50 L582.50,247.19 L583.75,246.89 L585.00,246.57 L586.25,246.26 L587.50,245.94 L588.75,245.61 L590.00,245.28 L591.25,244.95 L592.50,244.61 L593.75,244.27 L595.00,243.93 L596.25,243.58 L597.50,243.24 L598.75,242.88 L600.00,242.53 L601.25,242.17 L602.50,241.80 L603.75,241.44 L605.00,241.07 L606.25,240.70 L607.50,240.33 L608.75,239.95 L610.00,239.57 L611.25,239.19 L612.50,238.81 L613.75,238.42 L615.00,238.03 L616.25,237.65 L617.50,237.25 L618.75,236.86 L620.00,236.47 L621.25,236.07 L622.50,235.67 L623.75,235.27 L625.00,234.87 L626.25,234.47 L627.50,234.07 L628.75,233.66 L630.00,233.26 L631.25,232.85 L632.50,232.45 L633.75,232.04 L635.00,231.63 L636.25,231.22 L637.50,230.82 L638.75,230.41 L640.00,230.00" fill="none" stroke="#0F6E56" stroke-width="2" stroke-linecap="round" stroke-linejoin="round"/>
  <circle cx="140" cy="230" r="4.5" fill="#0F6E56"/>
  <circle cx="640" cy="230" r="4.5" fill="#0F6E56"/>
  <circle cx="390.00" cy="230" r="4.5" fill="var(--color-background-primary, #fff)" stroke="#0F6E56" stroke-width="1.5"/>
  <text x="126" y="230" text-anchor="end" dominant-baseline="central" font-size="13" font-family="var(--font-sans, sans-serif)" font-weight="400" fill="#0F6E56">2º harmônico</text>
  <line x1="140" y1="350" x2="640" y2="350" stroke="var(--color-border-tertiary, #333)" stroke-width="1.5" stroke-dasharray="5 4"/>
  <path d="M140.00,350.00 L141.25,349.43 L142.50,348.87 L143.75,348.30 L145.00,347.74 L146.25,347.18 L147.50,346.62 L148.75,346.06 L150.00,345.50 L151.25,344.95 L152.50,344.40 L153.75,343.85 L155.00,343.30 L156.25,342.76 L157.50,342.23 L158.75,341.69 L160.00,341.17 L161.25,340.64 L162.50,340.12 L163.75,339.61 L165.00,339.10 L166.25,338.60 L167.50,338.11 L168.75,337.62 L170.00,337.14 L171.25,336.67 L172.50,336.20 L173.75,335.74 L175.00,335.29 L176.25,334.85 L177.50,334.41 L178.75,333.99 L180.00,333.57 L181.25,333.16 L182.50,332.76 L183.75,332.38 L185.00,332.00 L186.25,331.63 L187.50,331.27 L188.75,330.92 L190.00,330.58 L191.25,330.26 L192.50,329.94 L193.75,329.64 L195.00,329.34 L196.25,329.06 L197.50,328.79 L198.75,328.53 L200.00,328.28 L201.25,328.05 L202.50,327.83 L203.75,327.62 L205.00,327.42 L206.25,327.23 L207.50,327.06 L208.75,326.90 L210.00,326.75 L211.25,326.62 L212.50,326.50 L213.75,326.39 L215.00,326.30 L216.25,326.21 L217.50,326.14 L218.75,326.09 L220.00,326.05 L221.25,326.02 L222.50,326.00 L223.75,326.00 L225.00,326.01 L226.25,326.04 L227.50,326.07 L228.75,326.12 L230.00,326.19 L231.25,326.27 L232.50,326.36 L233.75,326.46 L235.00,326.58 L236.25,326.71 L237.50,326.85 L238.75,327.01 L240.00,327.17 L241.25,327.36 L242.50,327.55 L243.75,327.76 L245.00,327.97 L246.25,328.20 L247.50,328.45 L248.75,328.70 L250.00,328.97 L251.25,329.25 L252.50,329.54 L253.75,329.84 L255.00,330.15 L256.25,330.47 L257.50,330.81 L258.75,331.15 L260.00,331.51 L261.25,331.87 L262.50,332.25 L263.75,332.63 L265.00,333.03 L266.25,333.43 L267.50,333.85 L268.75,334.27 L270.00,334.70 L271.25,335.14 L272.50,335.59 L273.75,336.05 L275.00,336.51 L276.25,336.98 L277.50,337.46 L278.75,337.95 L280.00,338.44 L281.25,338.94 L282.50,339.44 L283.75,339.95 L285.00,340.47 L286.25,340.99 L287.50,341.52 L288.75,342.05 L290.00,342.58 L291.25,343.12 L292.50,343.67 L293.75,344.21 L295.00,344.76 L296.25,345.32 L297.50,345.87 L298.75,346.43 L300.00,346.99 L301.25,347.55 L302.50,348.12 L303.75,348.68 L305.00,349.25 L306.25,349.81 L307.50,350.38 L308.75,350.94 L310.00,351.51 L311.25,352.07 L312.50,352.63 L313.75,353.19 L315.00,353.75 L316.25,354.31 L317.50,354.87 L318.75,355.42 L320.00,355.97 L321.25,356.51 L322.50,357.06 L323.75,357.60 L325.00,358.13 L326.25,358.66 L327.50,359.18 L328.75,359.70 L330.00,360.22 L331.25,360.73 L332.50,361.23 L333.75,361.73 L335.00,362.22 L336.25,362.70 L337.50,363.18 L338.75,363.65 L340.00,364.11 L341.25,364.56 L342.50,365.01 L343.75,365.44 L345.00,365.87 L346.25,366.29 L347.50,366.70 L348.75,367.10 L350.00,367.50 L351.25,367.88 L352.50,368.25 L353.75,368.61 L355.00,368.96 L356.25,369.31 L357.50,369.64 L358.75,369.96 L360.00,370.26 L361.25,370.56 L362.50,370.85 L363.75,371.12 L365.00,371.38 L366.25,371.63 L367.50,371.87 L368.75,372.10 L370.00,372.31 L371.25,372.52 L372.50,372.71 L373.75,372.88 L375.00,373.05 L376.25,373.20 L377.50,373.34 L378.75,373.46 L380.00,373.57 L381.25,373.67 L382.50,373.76 L383.75,373.83 L385.00,373.89 L386.25,373.94 L387.50,373.97 L388.75,373.99 L390.00,374.00 L391.25,373.99 L392.50,373.97 L393.75,373.94 L395.00,373.89 L396.25,373.83 L397.50,373.76 L398.75,373.67 L400.00,373.57 L401.25,373.46 L402.50,373.34 L403.75,373.20 L405.00,373.05 L406.25,372.88 L407.50,372.71 L408.75,372.52 L410.00,372.31 L411.25,372.10 L412.50,371.87 L413.75,371.63 L415.00,371.38 L416.25,371.12 L417.50,370.85 L418.75,370.56 L420.00,370.26 L421.25,369.96 L422.50,369.64 L423.75,369.31 L425.00,368.96 L426.25,368.61 L427.50,368.25 L428.75,367.88 L430.00,367.50 L431.25,367.10 L432.50,366.70 L433.75,366.29 L435.00,365.87 L436.25,365.44 L437.50,365.01 L438.75,364.56 L440.00,364.11 L441.25,363.65 L442.50,363.18 L443.75,362.70 L445.00,362.22 L446.25,361.73 L447.50,361.23 L448.75,360.73 L450.00,360.22 L451.25,359.70 L452.50,359.18 L453.75,358.66 L455.00,358.13 L456.25,357.60 L457.50,357.06 L458.75,356.51 L460.00,355.97 L461.25,355.42 L462.50,354.87 L463.75,354.31 L465.00,353.75 L466.25,353.19 L467.50,352.63 L468.75,352.07 L470.00,351.51 L471.25,350.94 L472.50,350.38 L473.75,349.81 L475.00,349.25 L476.25,348.68 L477.50,348.12 L478.75,347.55 L480.00,346.99 L481.25,346.43 L482.50,345.87 L483.75,345.32 L485.00,344.76 L486.25,344.21 L487.50,343.67 L488.75,343.12 L490.00,342.58 L491.25,342.05 L492.50,341.52 L493.75,340.99 L495.00,340.47 L496.25,339.95 L497.50,339.44 L498.75,338.94 L500.00,338.44 L501.25,337.95 L502.50,337.46 L503.75,336.98 L505.00,336.51 L506.25,336.05 L507.50,335.59 L508.75,335.14 L510.00,334.70 L511.25,334.27 L512.50,333.85 L513.75,333.43 L515.00,333.03 L516.25,332.63 L517.50,332.25 L518.75,331.87 L520.00,331.51 L521.25,331.15 L522.50,330.81 L523.75,330.47 L525.00,330.15 L526.25,329.84 L527.50,329.54 L528.75,329.25 L530.00,328.97 L531.25,328.70 L532.50,328.45 L533.75,328.20 L535.00,327.97 L536.25,327.76 L537.50,327.55 L538.75,327.36 L540.00,327.17 L541.25,327.01 L542.50,326.85 L543.75,326.71 L545.00,326.58 L546.25,326.46 L547.50,326.36 L548.75,326.27 L550.00,326.19 L551.25,326.12 L552.50,326.07 L553.75,326.04 L555.00,326.01 L556.25,326.00 L557.50,326.00 L558.75,326.02 L560.00,326.05 L561.25,326.09 L562.50,326.14 L563.75,326.21 L565.00,326.30 L566.25,326.39 L567.50,326.50 L568.75,326.62 L570.00,326.75 L571.25,326.90 L572.50,327.06 L573.75,327.23 L575.00,327.42 L576.25,327.62 L577.50,327.83 L578.75,328.05 L580.00,328.28 L581.25,328.53 L582.50,328.79 L583.75,329.06 L585.00,329.34 L586.25,329.64 L587.50,329.94 L588.75,330.26 L590.00,330.58 L591.25,330.92 L592.50,331.27 L593.75,331.63 L595.00,332.00 L596.25,332.38 L597.50,332.76 L598.75,333.16 L600.00,333.57 L601.25,333.99 L602.50,334.41 L603.75,334.85 L605.00,335.29 L606.25,335.74 L607.50,336.20 L608.75,336.67 L610.00,337.14 L611.25,337.62 L612.50,338.11 L613.75,338.60 L615.00,339.10 L616.25,339.61 L617.50,340.12 L618.75,340.64 L620.00,341.17 L621.25,341.69 L622.50,342.23 L623.75,342.76 L625.00,343.30 L626.25,343.85 L627.50,344.40 L628.75,344.95 L630.00,345.50 L631.25,346.06 L632.50,346.62 L633.75,347.18 L635.00,347.74 L636.25,348.30 L637.50,348.87 L638.75,349.43 L640.00,350.00" fill="none" stroke="#854F0B" stroke-width="2" stroke-linecap="round" stroke-linejoin="round"/>
  <circle cx="140" cy="350" r="4.5" fill="#854F0B"/>
  <circle cx="640" cy="350" r="4.5" fill="#854F0B"/>
  <circle cx="306.67" cy="350" r="4.5" fill="var(--color-background-primary, #fff)" stroke="#854F0B" stroke-width="1.5"/>
  <circle cx="473.33" cy="350" r="4.5" fill="var(--color-background-primary, #fff)" stroke="#854F0B" stroke-width="1.5"/>
  <text x="126" y="350" text-anchor="end" dominant-baseline="central" font-size="13" font-family="var(--font-sans, sans-serif)" font-weight="400" fill="#854F0B">3º harmônico</text>
  <line x1="140" y1="470" x2="640" y2="470" stroke="var(--color-border-tertiary, #333)" stroke-width="1.5" stroke-dasharray="5 4"/>
  <path d="M140.00,470.00 L141.25,468.81 L142.50,467.61 L143.75,466.42 L145.00,465.23 L146.25,464.04 L147.50,462.85 L148.75,461.67 L150.00,460.49 L151.25,459.31 L152.50,458.13 L153.75,456.96 L155.00,455.80 L156.25,454.64 L157.50,453.48 L158.75,452.33 L160.00,451.19 L161.25,450.05 L162.50,448.92 L163.75,447.80 L165.00,446.69 L166.25,445.58 L167.50,444.49 L168.75,443.40 L170.00,442.32 L171.25,441.25 L172.50,440.20 L173.75,439.15 L175.00,438.11 L176.25,437.09 L177.50,436.07 L178.75,435.07 L180.00,434.08 L181.25,433.11 L182.50,432.14 L183.75,431.19 L185.00,430.25 L186.25,429.33 L187.50,428.42 L188.75,427.53 L190.00,426.65 L191.25,425.78 L192.50,424.94 L193.75,424.10 L195.00,423.28 L196.25,422.48 L197.50,421.70 L198.75,420.93 L200.00,420.18 L201.25,419.44 L202.50,418.73 L203.75,418.03 L205.00,417.35 L206.25,416.68 L207.50,416.04 L208.75,415.41 L210.00,414.80 L211.25,414.21 L212.50,413.64 L213.75,413.08 L215.00,412.55 L216.25,412.03 L217.50,411.54 L218.75,411.06 L220.00,410.61 L221.25,410.17 L222.50,409.75 L223.75,409.35 L225.00,408.97 L226.25,408.62 L227.50,408.28 L228.75,407.96 L230.00,407.66 L231.25,407.38 L232.50,407.12 L233.75,406.88 L235.00,406.67 L236.25,406.47 L237.50,406.29 L238.75,406.13 L240.00,405.99 L241.25,405.87 L242.50,405.77 L243.75,405.69 L245.00,405.63 L246.25,405.59 L247.50,405.57 L248.75,405.56 L250.00,405.58 L251.25,405.62 L252.50,405.67 L253.75,405.75 L255.00,405.84 L256.25,405.95 L257.50,406.08 L258.75,406.23 L260.00,406.39 L261.25,406.58 L262.50,406.78 L263.75,406.99 L265.00,407.23 L266.25,407.48 L267.50,407.75 L268.75,408.04 L270.00,408.34 L271.25,408.66 L272.50,409.00 L273.75,409.35 L275.00,409.71 L276.25,410.09 L277.50,410.49 L278.75,410.90 L280.00,411.32 L281.25,411.76 L282.50,412.22 L283.75,412.68 L285.00,413.16 L286.25,413.65 L287.50,414.16 L288.75,414.67 L290.00,415.20 L291.25,415.74 L292.50,416.30 L293.75,416.86 L295.00,417.43 L296.25,418.02 L297.50,418.61 L298.75,419.21 L300.00,419.83 L301.25,420.45 L302.50,421.08 L303.75,421.72 L305.00,422.36 L306.25,423.02 L307.50,423.68 L308.75,424.34 L310.00,425.02 L311.25,425.70 L312.50,426.38 L313.75,427.08 L315.00,427.77 L316.25,428.47 L317.50,429.18 L318.75,429.89 L320.00,430.60 L321.25,431.32 L322.50,432.03 L323.75,432.76 L325.00,433.48 L326.25,434.20 L327.50,434.93 L328.75,435.66 L330.00,436.39 L331.25,437.12 L332.50,437.84 L333.75,438.57 L335.00,439.30 L336.25,440.03 L337.50,440.75 L338.75,441.47 L340.00,442.19 L341.25,442.91 L342.50,443.63 L343.75,444.34 L345.00,445.05 L346.25,445.76 L347.50,446.46 L348.75,447.16 L350.00,447.85 L351.25,448.54 L352.50,449.22 L353.75,449.90 L355.00,450.57 L356.25,451.23 L357.50,451.89 L358.75,452.54 L360.00,453.19 L361.25,453.83 L362.50,454.46 L363.75,455.08 L365.00,455.69 L366.25,456.30 L367.50,456.90 L368.75,457.49 L370.00,458.07 L371.25,458.64 L372.50,459.20 L373.75,459.76 L375.00,460.30 L376.25,460.83 L377.50,461.36 L378.75,461.87 L380.00,462.37 L381.25,462.86 L382.50,463.34 L383.75,463.82 L385.00,464.27 L386.25,464.72 L387.50,465.16 L388.75,465.59 L390.00,466.00 L391.25,466.40 L392.50,466.79 L393.75,467.17 L395.00,467.54 L396.25,467.90 L397.50,468.24 L398.75,468.57 L400.00,468.89 L401.25,469.20 L402.50,469.49 L403.75,469.77 L405.00,470.04 L406.25,470.30 L407.50,470.55 L408.75,470.78 L410.00,471.00 L411.25,471.21 L412.50,471.41 L413.75,471.59 L415.00,471.76 L416.25,471.92 L417.50,472.07 L418.75,472.21 L420.00,472.33 L421.25,472.44 L422.50,472.54 L423.75,472.63 L425.00,472.71 L426.25,472.77 L427.50,472.83 L428.75,472.87 L430.00,472.90 L431.25,472.92 L432.50,472.93 L433.75,472.93 L435.00,472.91 L436.25,472.89 L437.50,472.86 L438.75,472.81 L440.00,472.76 L441.25,472.70 L442.50,472.62 L443.75,472.54 L445.00,472.45 L446.25,472.34 L447.50,472.23 L448.75,472.11 L450.00,471.98 L451.25,471.85 L452.50,471.70 L453.75,471.55 L455.00,471.39 L456.25,471.22 L457.50,471.04 L458.75,470.86 L460.00,470.67 L461.25,470.47 L462.50,470.27 L463.75,470.06 L465.00,469.84 L466.25,469.62 L467.50,469.39 L468.75,469.16 L470.00,468.92 L471.25,468.68 L472.50,468.43 L473.75,468.18 L475.00,467.93 L476.25,467.67 L477.50,467.41 L478.75,467.14 L480.00,466.88 L481.25,466.61 L482.50,466.33 L483.75,466.06 L485.00,465.78 L486.25,465.50 L487.50,465.22 L488.75,464.94 L490.00,464.66 L491.25,464.38 L492.50,464.09 L493.75,463.81 L495.00,463.53 L496.25,463.24 L497.50,462.96 L498.75,462.68 L500.00,462.40 L501.25,462.12 L502.50,461.85 L503.75,461.57 L505.00,461.30 L506.25,461.03 L507.50,460.76 L508.75,460.50 L510.00,460.24 L511.25,459.98 L512.50,459.73 L513.75,459.48 L515.00,459.23 L516.25,458.99 L517.50,458.75 L518.75,458.52 L520.00,458.29 L521.25,458.07 L522.50,457.85 L523.75,457.64 L525.00,457.43 L526.25,457.23 L527.50,457.03 L528.75,456.84 L530.00,456.66 L531.25,456.48 L532.50,456.31 L533.75,456.15 L535.00,456.00 L536.25,455.85 L537.50,455.71 L538.75,455.57 L540.00,455.44 L541.25,455.32 L542.50,455.21 L543.75,455.11 L545.00,455.01 L546.25,454.93 L547.50,454.85 L548.75,454.77 L550.00,454.71 L551.25,454.66 L552.50,454.61 L553.75,454.57 L555.00,454.54 L556.25,454.52 L557.50,454.51 L558.75,454.51 L560.00,454.51 L561.25,454.52 L562.50,454.55 L563.75,454.58 L565.00,454.62 L566.25,454.67 L567.50,454.72 L568.75,454.79 L570.00,454.87 L571.25,454.95 L572.50,455.04 L573.75,455.14 L575.00,455.25 L576.25,455.37 L577.50,455.50 L578.75,455.63 L580.00,455.77 L581.25,455.93 L582.50,456.09 L583.75,456.25 L585.00,456.43 L586.25,456.61 L587.50,456.81 L588.75,457.01 L590.00,457.21 L591.25,457.43 L592.50,457.65 L593.75,457.88 L595.00,458.12 L596.25,458.36 L597.50,458.61 L598.75,458.87 L600.00,459.13 L601.25,459.40 L602.50,459.68 L603.75,459.96 L605.00,460.25 L606.25,460.55 L607.50,460.85 L608.75,461.15 L610.00,461.46 L611.25,461.78 L612.50,462.10 L613.75,462.43 L615.00,462.76 L616.25,463.09 L617.50,463.43 L618.75,463.78 L620.00,464.12 L621.25,464.47 L622.50,464.83 L623.75,465.18 L625.00,465.54 L626.25,465.90 L627.50,466.27 L628.75,466.63 L630.00,467.00 L631.25,467.37 L632.50,467.75 L633.75,468.12 L635.00,468.49 L636.25,468.87 L637.50,469.25 L638.75,469.62 L640.00,470.00" fill="none" stroke="#533AB7" stroke-width="2.5" stroke-linecap="round" stroke-linejoin="round"/>
  <circle cx="140" cy="470" r="4.5" fill="#533AB7"/>
  <circle cx="640" cy="470" r="4.5" fill="#533AB7"/>
  <text x="126" y="470" text-anchor="end" dominant-baseline="central" font-size="13" font-family="var(--font-sans, sans-serif)" font-weight="500" fill="#533AB7">soma (1+2+3)</text>
</svg>